<svg width="57" height="39" viewBox="0 0 57 39" fill="none" xmlns="http://www.w3.org/2000/svg">
<path d="M36.8364 9.91293L37.4891 9.54578L38.3866 11.9526H40.1407L38.9577 8.7707L40.0999 8.15879H46.423L45.9742 11.9526H47.606L48.0139 8.60752L48.1771 8.68911V11.9526H49.8089V9.01546L50.5432 8.24038H53.2764C53.7659 9.01546 54.4186 9.66817 55.2345 10.1577L55.724 10.4433C55.7648 10.4433 55.8056 10.484 55.8056 10.484H55.8464L56.8662 10.1985C56.9478 10.1577 57.0294 10.0761 56.9886 9.99452L56.907 4.81369C56.907 4.65051 56.7846 4.48733 56.6215 4.44654L54.0922 3.67146L50.2984 0.448733C49.9721 0.163175 49.5233 0 49.1154 0H36.1837C36.1429 0 36.1429 0 36.1021 0C34.5927 0 33.3281 1.22382 33.3281 2.77399V6.20068H34.9599V2.77399C34.9599 2.40684 35.1639 2.0397 35.4494 1.83573V3.71225C35.4494 3.95701 35.4902 4.24257 35.5718 4.44654L36.1837 6.60862L35.2454 9.4642C35.2046 9.54578 35.2046 9.62737 35.2046 9.70896V10.0353V10.8104V11.9526H36.8364V9.91293Z" fill="black"/>
<path d="M45.8932 30.2282L46.1788 31.9007C46.2196 32.0639 46.0972 32.2679 45.934 32.3087L43.9351 32.9206C43.8943 32.9206 43.8535 32.9206 43.8127 32.9206C43.7311 32.9206 43.6903 32.9206 43.6087 32.8798L42.6705 32.2679C41.1203 31.2888 39.8149 30.0242 38.8358 28.4741H33.451L31.1666 31.248V38.8765H28.5966V30.8401L26.924 28.3517H12.8909L5.87433 31.9415V38.8765H3.30431V31.4112C3.30431 31.248 3.3451 31.0849 3.3859 30.9625L5.22163 25.2513L3.99781 20.968C3.87543 20.4784 3.79384 19.9889 3.79384 19.4994V14.1962C2.81478 14.7265 2.16208 15.7463 2.16208 16.9294V23.6604C3.10034 25.4145 2.81478 27.6174 1.3462 29.086C0.448734 28.1885 0 27.0055 0 25.8224C0 25.0882 0.163176 24.3131 0.530321 23.6604V16.8886C0.530321 14.2778 2.65161 12.1973 5.22163 12.1973H30.6363C31.4929 12.1973 32.3496 12.5236 33.0023 13.0539L40.4676 19.4178L42.1402 19.9073C42.8337 19.7849 43.4864 19.7034 43.9759 19.581C44.0167 19.581 44.0167 19.581 44.0575 19.581C44.343 19.581 44.5062 19.9073 44.3838 20.1521L44.1391 20.5192L46.0156 21.0903C46.3419 21.1719 46.3827 21.6207 46.0972 21.743L44.8326 22.3958L45.73 23.7827C45.8524 23.9867 45.934 24.1907 45.8932 24.4355L45.8524 24.8842C45.6076 26.6791 45.6076 28.4741 45.8932 30.2282Z" fill="black"/>
<path d="M25.1299 29.9434L22.4375 38.2653H25.1707L26.9656 32.7581V31.2896L26.0274 29.9434H25.1299Z" fill="black"/>
<path d="M13.4648 29.9434H13.2608L9.14062 32.0239L11.4659 38.2653H14.1583L11.9554 32.0646L13.4648 29.9434Z" fill="black"/>
</svg>
