<svg width="43" height="41" viewBox="0 0 43 41" fill="none" xmlns="http://www.w3.org/2000/svg">
<path d="M5.82465 26.0738C5.89254 26.142 5.97307 26.1959 6.0616 26.2325C6.15013 26.2691 6.24493 26.2876 6.34056 26.2871H36.1329C36.2285 26.2876 36.3233 26.2691 36.4119 26.2325C36.5004 26.1959 36.5809 26.142 36.6488 26.0738L39.5554 23.1325C39.6579 23.0297 39.7277 22.8983 39.7561 22.7551C39.7845 22.6119 39.7701 22.4634 39.7148 22.3285C39.6594 22.1936 39.5657 22.0784 39.4454 21.9977C39.3251 21.9169 39.1838 21.8743 39.0395 21.8751H36.4962V20.4045C36.4914 16.7422 35.2005 13.2008 32.8538 10.4126C30.5072 7.62446 27.2577 5.77107 23.6855 5.18336L23.9471 3.02152C23.9843 2.7104 23.9555 2.39483 23.8627 2.09585C23.77 1.79686 23.6153 1.5213 23.409 1.28754C23.2028 1.05377 22.9497 0.867161 22.6666 0.740133C22.3835 0.613104 22.0769 0.548573 21.7672 0.550839H20.6772C20.3675 0.548573 20.0609 0.613104 19.7778 0.740133C19.4947 0.867161 19.2416 1.05377 19.0354 1.28754C18.8291 1.5213 18.6744 1.79686 18.5817 2.09585C18.4889 2.39483 18.4601 2.7104 18.4973 3.02152L18.7589 5.18336C15.192 5.77735 11.9493 7.63345 9.60853 10.421C7.26775 13.2085 5.98091 16.7465 5.97724 20.4045V21.8751H3.43399C3.28966 21.8743 3.14835 21.9169 3.02808 21.9977C2.90781 22.0784 2.81402 22.1936 2.75867 22.3285C2.70333 22.4634 2.68893 22.6119 2.71732 22.7551C2.74571 22.8983 2.8156 23.0297 2.91808 23.1325L5.82465 26.0738ZM19.9724 2.84504C19.96 2.74133 19.9696 2.63615 20.0005 2.53648C20.0314 2.43682 20.083 2.34497 20.1517 2.26705C20.2205 2.18912 20.3049 2.12692 20.3992 2.08458C20.4936 2.04223 20.5958 2.02072 20.699 2.02148H21.789C21.8922 2.02072 21.9944 2.04223 22.0888 2.08458C22.1831 2.12692 22.2675 2.18912 22.3363 2.26705C22.405 2.34497 22.4566 2.43682 22.4875 2.53648C22.5184 2.63615 22.528 2.74133 22.5156 2.84504L22.2613 5.051C21.5895 4.98484 20.913 4.98484 20.2412 5.051L19.9724 2.84504ZM7.43053 20.4045C7.43053 16.6991 8.8851 13.1455 11.4743 10.5254C14.0634 7.90535 17.5751 6.4334 21.2367 6.4334C24.8984 6.4334 28.41 7.90535 30.9992 10.5254C33.5884 13.1455 35.0429 16.6991 35.0429 20.4045V21.8751H7.43053V20.4045ZM37.2883 23.3458L35.835 24.8164H6.63849L5.1852 23.3458H37.2883Z" fill="black"/>
<path d="M13.9697 10.2858C11.579 12.0454 9.88848 14.6115 9.2029 17.5213C9.17216 17.6179 9.1615 17.7198 9.17158 17.8208C9.18167 17.9217 9.21228 18.0194 9.26149 18.1078C9.31071 18.1962 9.37746 18.2733 9.45756 18.3343C9.53765 18.3953 9.62935 18.4389 9.72689 18.4623C9.82443 18.4857 9.9257 18.4884 10.0243 18.4703C10.123 18.4522 10.2168 18.4136 10.3 18.357C10.3832 18.3004 10.4539 18.227 10.5077 18.1414C10.5615 18.0558 10.5972 17.9598 10.6126 17.8596C11.2169 15.29 12.7124 13.0252 14.8271 11.477C14.9044 11.42 14.9698 11.3482 15.0197 11.2656C15.0696 11.1831 15.1029 11.0914 15.1177 10.9958C15.1326 10.9002 15.1287 10.8026 15.1062 10.7085C15.0838 10.6144 15.0433 10.5258 14.987 10.4476C14.9307 10.3693 14.8597 10.3031 14.7781 10.2526C14.6965 10.2022 14.6059 10.1685 14.5114 10.1535C14.417 10.1384 14.3205 10.1424 14.2275 10.1651C14.1346 10.1878 14.047 10.2288 13.9697 10.2858ZM36.0523 28.5291C35.9921 28.4067 35.8993 28.3038 35.7844 28.2318C35.6695 28.1599 35.5371 28.1218 35.402 28.1218C35.2669 28.1218 35.1344 28.1599 35.0196 28.2318C34.9047 28.3038 34.8119 28.4067 34.7516 28.5291L33.0876 31.9336L29.3745 32.4778C29.2393 32.4964 29.1121 32.5531 29.0073 32.6415C28.9025 32.7299 28.8244 32.8463 28.7819 32.9775C28.7395 33.1087 28.7344 33.2493 28.7672 33.3833C28.8 33.5173 28.8695 33.6392 28.9676 33.7352L31.6561 36.3897L31.024 40.1324C31.0002 40.2679 31.0144 40.4074 31.0651 40.5351C31.1158 40.6628 31.2008 40.7735 31.3106 40.8547C31.4203 40.9359 31.5504 40.9843 31.686 40.9944C31.8216 41.0045 31.9573 40.9759 32.0776 40.9119L35.4056 39.1398L38.7264 40.9119C38.8467 40.9759 38.9824 41.0045 39.118 40.9944C39.2536 40.9843 39.3836 40.9359 39.4934 40.8547C39.6032 40.7735 39.6882 40.6628 39.7389 40.5351C39.7895 40.4074 39.8038 40.2679 39.78 40.1324L39.1478 36.3897L41.8364 33.7352C41.9345 33.6392 42.0039 33.5173 42.0368 33.3833C42.0696 33.2493 42.0645 33.1087 42.022 32.9775C41.9796 32.8463 41.9015 32.7299 41.7967 32.6415C41.6919 32.5531 41.5646 32.4964 41.4295 32.4778L37.7163 31.9336L36.0523 28.5291ZM37.8544 35.6029C37.7705 35.687 37.7081 35.7906 37.6726 35.9046C37.6372 36.0186 37.6297 36.1397 37.6509 36.2573L38.1015 38.9118L35.7689 37.6544C35.6647 37.599 35.5488 37.5701 35.431 37.5701C35.3133 37.5701 35.1974 37.599 35.0932 37.6544L32.7316 38.9118L33.1821 36.2573C33.2033 36.1397 33.1959 36.0186 33.1604 35.9046C33.125 35.7906 33.0626 35.687 32.9786 35.6029L31.0676 33.7205L33.7053 33.3307C33.821 33.3138 33.9309 33.2688 34.0258 33.1997C34.1207 33.1306 34.1977 33.0393 34.2503 32.9337L35.4347 30.5145L36.5828 32.9042C36.6353 33.0099 36.7123 33.1012 36.8072 33.1703C36.9021 33.2394 37.0121 33.2844 37.1278 33.3013L39.7655 33.691L37.8544 35.6029ZM3.32436 36.3897L2.69218 40.1324C2.6684 40.2679 2.68265 40.4074 2.73332 40.5351C2.78398 40.6628 2.86903 40.7735 2.97879 40.8547C3.08855 40.9359 3.21862 40.9843 3.35421 40.9944C3.4898 41.0045 3.62548 40.9759 3.74581 40.9119L7.06657 39.1398L10.3946 40.9119C10.5149 40.9759 10.6506 41.0045 10.7862 40.9944C10.9218 40.9843 11.0519 40.9359 11.1616 40.8547C11.2714 40.7735 11.3564 40.6628 11.4071 40.5351C11.4577 40.4074 11.472 40.2679 11.4482 40.1324L10.816 36.3897L13.5046 33.7352C13.6027 33.6392 13.6722 33.5173 13.705 33.3833C13.7378 33.2493 13.7327 33.1087 13.6903 32.9775C13.6478 32.8463 13.5697 32.7299 13.4649 32.6415C13.3601 32.5531 13.2329 32.4964 13.0977 32.4778L9.38456 31.9336L7.72055 28.5291C7.66028 28.4067 7.5675 28.3038 7.45262 28.2318C7.33773 28.1599 7.20531 28.1218 7.0702 28.1218C6.9351 28.1218 6.80267 28.1599 6.68779 28.2318C6.57291 28.3038 6.48012 28.4067 6.41986 28.5291L4.75585 31.9336L1.0427 32.4778C0.907536 32.4964 0.780276 32.5531 0.675485 32.6415C0.570695 32.7299 0.492605 32.8463 0.45015 32.9775C0.407694 33.1087 0.402589 33.2493 0.435418 33.3833C0.468247 33.5173 0.537683 33.6392 0.635784 33.7352L3.32436 36.3897ZM5.34443 33.3307C5.46013 33.3138 5.57009 33.2688 5.66496 33.1997C5.75984 33.1306 5.83683 33.0393 5.88941 32.9337L7.06657 30.5145L8.25099 32.9042C8.30357 33.0099 8.38056 33.1012 8.47544 33.1703C8.57031 33.2394 8.68027 33.2844 8.79598 33.3013L11.4337 33.691L9.52262 35.5735C9.43869 35.6576 9.3763 35.7612 9.34084 35.8752C9.30539 35.9892 9.29795 36.1103 9.31916 36.2279L9.76968 38.8824L7.42989 37.6544C7.32567 37.599 7.20972 37.5701 7.092 37.5701C6.97428 37.5701 6.85833 37.599 6.75411 37.6544L4.37072 38.9118L4.82124 36.2573C4.84245 36.1397 4.83501 36.0186 4.79956 35.9046C4.76411 35.7906 4.70171 35.687 4.61778 35.6029L2.70671 33.7205L5.34443 33.3307ZM27.2672 32.4778L23.5468 31.9336L21.8901 28.5291C21.8306 28.4048 21.7377 28.2999 21.622 28.2266C21.5063 28.1532 21.3726 28.1143 21.2361 28.1143C21.0996 28.1143 20.9658 28.1532 20.8502 28.2266C20.7345 28.2999 20.6416 28.4048 20.5821 28.5291L18.9254 31.9336L15.205 32.4778C15.0704 32.4975 14.944 32.5551 14.8402 32.6439C14.7363 32.7328 14.6592 32.8493 14.6176 32.9803C14.5759 33.1113 14.5714 33.2515 14.6046 33.3849C14.6378 33.5184 14.7074 33.6397 14.8053 33.7352L17.4939 36.3897L16.8762 40.1324C16.8514 40.2689 16.8653 40.4097 16.9162 40.5385C16.9671 40.6673 17.053 40.7789 17.164 40.8604C17.2749 40.9419 17.4064 40.99 17.5432 40.9991C17.68 41.0082 17.8166 40.978 17.9371 40.9119L21.2361 39.1398L24.5568 40.9119C24.6767 40.9719 24.8106 40.9973 24.9438 40.9852C25.077 40.9732 25.2044 40.9242 25.3118 40.8436C25.4193 40.763 25.5026 40.6539 25.5528 40.5285C25.6029 40.403 25.6178 40.266 25.5959 40.1324L24.9565 36.3897L27.6451 33.7352C27.7427 33.6412 27.8125 33.5216 27.8469 33.3897C27.8812 33.2579 27.8786 33.119 27.8394 32.9885C27.8002 32.8581 27.7259 32.7412 27.6249 32.651C27.5238 32.5608 27.4 32.5008 27.2672 32.4778ZM23.6921 35.6029C23.6069 35.6863 23.5432 35.7895 23.5064 35.9036C23.4697 36.0177 23.4611 36.1391 23.4814 36.2573L23.9319 38.9118L21.5776 37.6544C21.4725 37.5978 21.3552 37.5681 21.2361 37.5681C21.117 37.5681 20.9997 37.5978 20.8946 37.6544L18.5402 38.9118L18.9908 36.2573C19.0111 36.1391 19.0025 36.0177 18.9657 35.9036C18.929 35.7895 18.8653 35.6863 18.78 35.6029L16.8762 33.7205L19.5139 33.3307C19.6309 33.3149 19.7424 33.2705 19.8386 33.2013C19.9348 33.1321 20.0129 33.0403 20.0662 32.9337L21.2361 30.5145L22.4133 32.9042C22.4665 33.0108 22.5446 33.1027 22.6409 33.1719C22.7371 33.2411 22.8485 33.2855 22.9655 33.3013L25.6032 33.691L23.6921 35.6029Z" fill="black"/>
</svg>
