<svg xmlns="http://www.w3.org/2000/svg" version="1.1" viewBox="-5.0 -10.0 110.0 135.0">
 <g>
  <path d="m44 56.898h12c1 0 1.8984-0.80078 1.8984-1.8984v-10.199h10.199c1 0 1.8984-0.80078 1.8984-1.8984v-12c0-1-0.80078-1.8984-1.8984-1.8984l-10.199-0.003906v-10.102c0-1-0.80078-1.8984-1.8984-1.8984h-12c-1 0-1.8984 0.80078-1.8984 1.8984v10.199l-10.203 0.003906c-1 0-1.8984 0.80078-1.8984 1.8984v12c0 1 0.80078 1.8984 1.8984 1.8984h10.199l0.003906 10.102c0 1 0.89844 1.8984 1.8984 1.8984zm-10.199-15.797v-8.3008h10.199c1 0 1.8984-0.80078 1.8984-1.8984v-10.203h8.3008v10.199c0 1 0.80078 1.8984 1.8984 1.8984h10.199v8.3008l-10.297 0.003906c-1 0-1.8984 0.80078-1.8984 1.8984v10.199h-8.3008v-10.199c0-1-0.80078-1.8984-1.8984-1.8984z"/>
  <path d="m15.199 33.898h0.39844c0.89844 0 1.6016-0.60156 1.8008-1.5 3.3008-15.098 17-26.199 32.602-26.199s29.301 11 32.602 26.199c0.19922 1 1.1992 1.6992 2.1992 1.3984 1-0.19922 1.6016-1.1992 1.3984-2.1992-3.5977-16.797-18.898-29.098-36.199-29.098s-32.602 12.301-36.301 29.199c-0.19922 1 0.5 2 1.5 2.1992z"/>
  <path d="m90.102 39.398c-1.1016-1.1016-2.5-1.6016-4.1992-1.6016-2.1992 0.10156-4.1016 1.6016-4.8008 3.6992l-4.8984 14.699c-1-0.69922-2.1992-1-3.5-0.89844-1.6016 0.10156-3.1016 0.80078-4.1016 2l-10.203 11.602c-2.1992 2.5-3.6016 5.8008-3.8008 9.1992l-1.1016 17.398c0 0.5 0.10156 1 0.5 1.3984 0.39844 0.39844 0.80078 0.60156 1.3984 0.60156h16.5c0.89844 0 1.6992-0.60156 1.8008-1.5l1.3008-7 9.6016-6.8984c2.6992-1.8984 4.3984-4.8984 4.6992-8.1992l2.3984-30.398c0.003907-1.5-0.49609-3-1.5938-4.1016zm-4.6016 34.203c-0.19922 2.1992-1.3008 4.1992-3.1016 5.5l-10.199 7.3008c-0.39844 0.30078-0.69922 0.69922-0.69922 1.1992l-1.1016 6.1992h-13l1-15.398c0.19922-2.6016 1.1992-5 2.8984-6.8984l10.301-11.699c0.39844-0.5 0.89844-0.69922 1.5-0.80078 0.5 0 1 0.10156 1.3984 0.39844 0.39844 0.30078 0.60156 0.60156 0.80078 1v0.10156c0.19922 0.69922 0.10156 1.3984-0.39844 2l-8.5 10.496c-0.60156 0.80078-0.5 2 0.30078 2.6016 0.80078 0.60156 2 0.5 2.6016-0.30078l8.3008-10.5c1.1016-1.3008 1.5-3.1016 1.1992-4.8008l5.8008-17.301c0.19922-0.69922 0.80078-1.1016 1.6016-1.1992 0.5 0 0.89844 0.19922 1.3008 0.5 0.30078 0.30078 0.5 0.80078 0.5 1.3008z"/>
  <path d="m41.699 68.898-10.301-11.699c-1.1016-1.1992-2.5-1.8984-4.1016-2-1.1992-0.10156-2.3984 0.30078-3.5 0.89844l-4.8984-14.699c-0.69922-2.1016-2.6016-3.6016-4.8984-3.6992-1.5 0-3 0.5-4.1016 1.6016-1.1016 1.1016-1.6016 2.6016-1.5 4.1016l2.3984 30.398c0.30078 3.3008 2 6.3008 4.6992 8.1992l9.6016 6.8984 1.3008 7c0.19922 0.89844 0.89844 1.5 1.8008 1.5h16.5c0.5 0 1-0.19922 1.3984-0.60156 0.39844-0.39844 0.5-0.89844 0.5-1.3984l-1.1016-17.398c-0.29688-3.3008-1.5977-6.5-3.7969-9.1016zm-12 24.902-1.1016-6.1992c-0.10156-0.5-0.39844-0.89844-0.69922-1.1992l-10.199-7.3008c-1.8008-1.3008-2.8984-3.3008-3.1016-5.5l-2.3984-30.301c0-0.5 0.10156-0.89844 0.5-1.3008 0.30078-0.30078 0.80078-0.5 1.3008-0.5 0.69922 0 1.3008 0.5 1.5 1.1992l5.6016 17.301c-0.30078 1.6992 0.10156 3.5 1.1992 4.8008l8.3984 10.5c0.60156 0.80078 1.8008 0.89844 2.6016 0.30078 0.80078-0.60156 0.89844-1.8008 0.30078-2.6016l-8.3984-10.5c-0.39844-0.5-0.60156-1.3008-0.39844-2v-0.10156c0.10156-0.39844 0.39844-0.80078 0.80078-1 0.39844-0.30078 0.89844-0.39844 1.3984-0.39844 0.60156 0 1.1016 0.30078 1.5 0.69922l10.301 11.699c1.6992 1.8984 2.6992 4.3984 2.8984 6.8984l1 15.398-13.004 0.003907z"/>
 </g>
<text x="0.0" y="117.5" font-size="5.0" font-weight="bold" font-family="Arbeit Regular, Helvetica, Arial-Unicode, Arial, Sans-serif" fill="#000000">Created by Adrien Coquet</text><text x="0.0" y="122.5" font-size="5.0" font-weight="bold" font-family="Arbeit Regular, Helvetica, Arial-Unicode, Arial, Sans-serif" fill="#000000">from Noun Project</text></svg>