<svg width="47" height="40" viewBox="0 0 47 40" fill="none" xmlns="http://www.w3.org/2000/svg">
<path d="M33.6805 31.5212C33.7354 31.5326 33.7914 31.5386 33.8475 31.5388C34.0223 31.5386 34.1919 31.4789 34.3282 31.3694C34.4645 31.2599 34.5595 31.1072 34.5975 30.9365C36.0905 24.2188 40.6144 16.6288 40.6598 16.5519C40.7605 16.3773 40.7886 16.1701 40.7381 15.9749C40.6875 15.7797 40.5624 15.6122 40.3896 15.5083C40.2168 15.4045 40.0101 15.3726 39.8141 15.4196C39.618 15.4666 39.4482 15.5887 39.3413 15.7596C39.1498 16.0781 34.6436 23.6396 33.0959 30.6058C33.0524 30.8047 33.0895 31.0127 33.1991 31.1843C33.3086 31.3559 33.4818 31.477 33.6805 31.5212Z" fill="black"/>
<path d="M33.3207 32.3481C33.1272 32.2836 32.916 32.2985 32.7335 32.3897C32.551 32.4809 32.4122 32.6408 32.3477 32.8343L31.5784 35.142C31.514 35.3358 31.5291 35.5473 31.6206 35.7299C31.712 35.9125 31.8723 36.0514 32.0661 36.1158C32.2599 36.1803 32.4714 36.1651 32.6541 36.0737C32.8367 35.9822 32.9755 35.8219 33.04 35.6281L33.8092 33.3204C33.841 33.2245 33.8536 33.1233 33.8462 33.0225C33.8389 32.9217 33.8118 32.8234 33.7664 32.7331C33.721 32.6428 33.6583 32.5623 33.5819 32.4963C33.5054 32.4302 33.4167 32.3799 33.3207 32.3481Z" fill="black"/>
<path d="M45.6547 13.8946C45.6024 13.8762 40.4855 11.9592 36.1232 10.4669C36.0783 10.0951 35.9424 9.74004 35.7276 9.43322C35.5128 9.1264 35.2256 8.87728 34.8916 8.70789C34.5575 8.53851 34.1869 8.45409 33.8124 8.4621C33.4379 8.47012 33.0712 8.57032 32.7447 8.75385C31.5315 7.39997 30.8324 5.66299 30.7693 3.84615C30.7693 1.65308 27.4617 0 23.077 0C18.6924 0 15.3847 1.65231 15.3847 3.84615C15.3233 5.66382 14.6249 7.40205 13.4117 8.75692C13.0748 8.56617 12.6949 8.4645 12.3078 8.46154C11.7497 8.46319 11.2112 8.66743 10.7924 9.03629C10.3736 9.40515 10.103 9.91353 10.0309 10.4669C5.66704 11.9592 0.552424 13.8754 0.499347 13.8946C0.393635 13.9342 0.297937 13.9966 0.219042 14.0774C0.140148 14.1581 0.0799921 14.2552 0.0428435 14.3618C0.00569488 14.4684 -0.00753575 14.5819 0.00409056 14.6942C0.0157169 14.8065 0.0519151 14.9148 0.110116 15.0115C0.200886 15.1631 9.23089 30.3208 9.23089 39.2308C9.23089 39.4348 9.31193 39.6304 9.45619 39.7747C9.60045 39.919 9.7961 40 10.0001 40H36.154C36.358 40 36.5536 39.919 36.6979 39.7747C36.8421 39.6304 36.9232 39.4348 36.9232 39.2308C36.9232 30.3208 45.9532 15.1631 46.044 15.0115C46.1022 14.9148 46.1384 14.8065 46.15 14.6942C46.1616 14.5819 46.1484 14.4684 46.1112 14.3618C46.0741 14.2552 46.0139 14.1581 45.935 14.0774C45.8561 13.9966 45.7604 13.9342 45.6547 13.8946ZM33.8463 10C33.9984 10 34.1471 10.0451 34.2736 10.1296C34.4001 10.2142 34.4987 10.3343 34.5569 10.4749C34.6152 10.6154 34.6304 10.7701 34.6007 10.9193C34.571 11.0685 34.4978 11.2056 34.3902 11.3132C34.2826 11.4207 34.1456 11.494 33.9963 11.5237C33.8471 11.5534 33.6925 11.5381 33.5519 11.4799C33.4113 11.4217 33.2912 11.3231 33.2067 11.1966C33.1222 11.0701 33.077 10.9214 33.077 10.7692C33.077 10.5652 33.1581 10.3696 33.3023 10.2253C33.4466 10.081 33.6423 10 33.8463 10ZM32.3078 13.0769C32.3078 13.2291 32.2627 13.3778 32.1782 13.5043C32.0936 13.6308 31.9735 13.7294 31.8329 13.7876C31.6924 13.8458 31.5377 13.8611 31.3885 13.8314C31.2393 13.8017 31.1022 13.7284 30.9946 13.6209C30.8871 13.5133 30.8138 13.3762 30.7841 13.227C30.7544 13.0778 30.7697 12.9231 30.8279 12.7826C30.8861 12.642 30.9847 12.5219 31.1112 12.4373C31.2377 12.3528 31.3864 12.3077 31.5386 12.3077C31.7426 12.3077 31.9382 12.3887 32.0825 12.533C32.2268 12.6773 32.3078 12.8729 32.3078 13.0769ZM23.077 1.53846C26.7878 1.53846 29.1686 2.87154 29.2255 3.81154C29.1768 4.11993 29.023 4.40201 28.7901 4.61C28.5524 4.81773 28.2899 4.99524 28.0086 5.13846C26.4569 5.78752 24.795 6.13224 23.1132 6.15385H23.0847C21.3945 6.13698 19.7233 5.79595 18.1617 5.14923C17.872 5.00405 17.6017 4.82315 17.357 4.61077C17.126 4.40314 16.9736 4.12224 16.9255 3.81538C16.9855 2.87154 19.3655 1.53846 23.077 1.53846ZM16.6155 6C16.7692 6.11666 16.9297 6.22404 17.0963 6.32154L17.114 6.33154C17.2347 6.40308 17.357 6.47231 17.4847 6.53692C19.2336 7.35172 21.1484 7.74732 23.077 7.69231H23.0893L23.2578 7.68769C25.124 7.72056 26.9732 7.32753 28.6647 6.53846C28.9728 6.38697 29.2659 6.20668 29.5401 6C29.8931 7.47312 30.645 8.82058 31.7132 9.89462C31.5987 10.172 31.5394 10.4691 31.5386 10.7692C30.9265 10.7692 30.3396 11.0124 29.9068 11.4451C29.474 11.8779 29.2309 12.4649 29.2309 13.0769C28.7251 13.0791 28.2339 13.2474 27.8331 13.5559C27.4323 13.8645 27.1439 14.2962 27.0124 14.7846C26.6626 14.6424 26.2832 14.5885 25.9076 14.6277C25.532 14.6669 25.1719 14.7979 24.8589 15.0093C24.546 15.2207 24.2899 15.5058 24.1133 15.8396C23.9367 16.1733 23.845 16.5455 23.8463 16.9231C23.8463 16.9731 23.8578 17.02 23.8609 17.0692C23.3565 16.8744 22.7976 16.8744 22.2932 17.0692C22.2932 17.02 22.3078 16.9731 22.3078 16.9231C22.3091 16.5455 22.2174 16.1733 22.0408 15.8396C21.8641 15.5058 21.6081 15.2207 21.2951 15.0093C20.9822 14.7979 20.6221 14.6669 20.2465 14.6277C19.8709 14.5885 19.4915 14.6424 19.1417 14.7846C19.0101 14.2962 18.7218 13.8645 18.321 13.5559C17.9201 13.2474 17.429 13.0791 16.9232 13.0769C16.9232 12.4649 16.6801 11.8779 16.2473 11.4451C15.8145 11.0124 15.2275 10.7692 14.6155 10.7692C14.615 10.4705 14.5562 10.1747 14.4424 9.89846C15.5113 8.82339 16.2632 7.47451 16.6155 6ZM30.0001 15.3846C30.0001 15.5368 29.955 15.6855 29.8705 15.812C29.786 15.9385 29.6658 16.0371 29.5253 16.0953C29.3847 16.1535 29.23 16.1687 29.0808 16.1391C28.9316 16.1094 28.7945 16.0361 28.687 15.9285C28.5794 15.821 28.5061 15.6839 28.4764 15.5347C28.4468 15.3855 28.462 15.2308 28.5202 15.0902C28.5784 14.9497 28.677 14.8295 28.8035 14.745C28.93 14.6605 29.0787 14.6154 29.2309 14.6154C29.4349 14.6154 29.6306 14.6964 29.7748 14.8407C29.9191 14.9849 30.0001 15.1806 30.0001 15.3846ZM26.9232 16.9231C26.9232 17.0752 26.8781 17.2239 26.7936 17.3504C26.709 17.4769 26.5889 17.5755 26.4483 17.6338C26.3078 17.692 26.1531 17.7072 26.0039 17.6775C25.8547 17.6478 25.7176 17.5746 25.61 17.467C25.5025 17.3594 25.4292 17.2224 25.3995 17.0731C25.3698 16.9239 25.3851 16.7693 25.4433 16.6287C25.5015 16.4881 25.6001 16.368 25.7266 16.2835C25.8531 16.199 26.0018 16.1538 26.154 16.1538C26.358 16.1538 26.5536 16.2349 26.6979 16.3791C26.8421 16.5234 26.9232 16.7191 26.9232 16.9231ZM21.394 25.3554C21.086 25.6837 20.8808 26.0949 20.8036 26.5384C20.7263 26.9818 20.7805 27.4382 20.9594 27.8513C21.1383 28.2643 21.4341 28.6161 21.8103 28.8632C22.1866 29.1103 22.6269 29.2419 23.077 29.2419C23.5272 29.2419 23.9675 29.1103 24.3438 28.8632C24.72 28.6161 25.0158 28.2643 25.1947 27.8513C25.3736 27.4382 25.4277 26.9818 25.3505 26.5384C25.2733 26.0949 25.0681 25.6837 24.7601 25.3554C24.9342 25.3242 25.0918 25.2332 25.2059 25.098C25.3199 24.9629 25.3832 24.7922 25.3847 24.6154V23.8462C26.0305 24.3305 26.5076 25.0058 26.7482 25.7763C26.9889 26.5468 26.9811 27.3735 26.7258 28.1393C26.4705 28.9052 25.9808 29.5712 25.3259 30.0432C24.6711 30.5152 23.8843 30.7692 23.077 30.7692C22.2698 30.7692 21.483 30.5152 20.8282 30.0432C20.1733 29.5712 19.6835 28.9052 19.4283 28.1393C19.173 27.3735 19.1651 26.5468 19.4058 25.7763C19.6465 25.0058 20.1236 24.3305 20.7693 23.8462V24.6154C20.7709 24.7922 20.8341 24.9629 20.9482 25.098C21.0622 25.2332 21.2199 25.3242 21.394 25.3554ZM23.077 21.5385C23.3397 21.5359 23.5999 21.488 23.8463 21.3969V23.8462H22.3078V21.3969C22.5542 21.488 22.8144 21.5359 23.077 21.5385ZM22.3078 19.2308C22.3078 19.0786 22.3529 18.9299 22.4374 18.8034C22.522 18.6769 22.6421 18.5783 22.7827 18.5201C22.9232 18.4619 23.0779 18.4466 23.2271 18.4763C23.3763 18.506 23.5134 18.5793 23.621 18.6868C23.7285 18.7944 23.8018 18.9315 23.8315 19.0807C23.8612 19.2299 23.8459 19.3846 23.7877 19.5251C23.7295 19.6657 23.6309 19.7858 23.5044 19.8704C23.3779 19.9549 23.2292 20 23.077 20C22.873 20 22.6774 19.919 22.5331 19.7747C22.3888 19.6304 22.3078 19.4348 22.3078 19.2308ZM23.077 26.1538C23.2292 26.1538 23.3779 26.199 23.5044 26.2835C23.6309 26.368 23.7295 26.4881 23.7877 26.6287C23.8459 26.7693 23.8612 26.9239 23.8315 27.0731C23.8018 27.2224 23.7285 27.3594 23.621 27.467C23.5134 27.5746 23.3763 27.6478 23.2271 27.6775C23.0779 27.7072 22.9232 27.692 22.7827 27.6338C22.6421 27.5755 22.522 27.4769 22.4374 27.3504C22.3529 27.2239 22.3078 27.0752 22.3078 26.9231C22.3078 26.7191 22.3888 26.5234 22.5331 26.3791C22.6774 26.2349 22.873 26.1538 23.077 26.1538ZM20.7693 16.9231C20.7693 17.0752 20.7242 17.2239 20.6397 17.3504C20.5552 17.4769 20.435 17.5755 20.2945 17.6338C20.1539 17.692 19.9993 17.7072 19.85 17.6775C19.7008 17.6478 19.5638 17.5746 19.4562 17.467C19.3486 17.3594 19.2753 17.2224 19.2457 17.0731C19.216 16.9239 19.2312 16.7693 19.2894 16.6287C19.3477 16.4881 19.4463 16.368 19.5728 16.2835C19.6993 16.199 19.848 16.1538 20.0001 16.1538C20.2041 16.1538 20.3998 16.2349 20.544 16.3791C20.6883 16.5234 20.7693 16.7191 20.7693 16.9231ZM17.6924 15.3846C17.6924 15.5368 17.6473 15.6855 17.5628 15.812C17.4783 15.9385 17.3581 16.0371 17.2176 16.0953C17.077 16.1535 16.9223 16.1687 16.7731 16.1391C16.6239 16.1094 16.4868 16.0361 16.3793 15.9285C16.2717 15.821 16.1984 15.6839 16.1687 15.5347C16.1391 15.3855 16.1543 15.2308 16.2125 15.0902C16.2707 14.9497 16.3693 14.8295 16.4958 14.745C16.6223 14.6605 16.7711 14.6154 16.9232 14.6154C17.1272 14.6154 17.3229 14.6964 17.4671 14.8407C17.6114 14.9849 17.6924 15.1806 17.6924 15.3846ZM14.6155 12.3077C14.7676 12.3077 14.9164 12.3528 15.0429 12.4373C15.1694 12.5219 15.268 12.642 15.3262 12.7826C15.3844 12.9231 15.3996 13.0778 15.37 13.227C15.3403 13.3762 15.267 13.5133 15.1594 13.6209C15.0518 13.7284 14.9148 13.8017 14.7656 13.8314C14.6164 13.8611 14.4617 13.8458 14.3211 13.7876C14.1806 13.7294 14.0604 13.6308 13.9759 13.5043C13.8914 13.3778 13.8463 13.2291 13.8463 13.0769C13.8463 12.8729 13.9273 12.6773 14.0716 12.533C14.2158 12.3887 14.4115 12.3077 14.6155 12.3077ZM12.3078 10C12.5095 10.0006 12.7029 10.0805 12.8463 10.2223L12.8524 10.2269C12.9778 10.3531 13.0557 10.5188 13.0726 10.6959C13.0896 10.873 13.0446 11.0505 12.9454 11.1982C12.8462 11.3459 12.6988 11.4546 12.5285 11.5059C12.3581 11.5571 12.1752 11.5477 12.011 11.4793C11.8468 11.4109 11.7114 11.2876 11.6278 11.1306C11.5442 10.9735 11.5177 10.7923 11.5527 10.6179C11.5877 10.4435 11.682 10.2866 11.8197 10.1739C11.9574 10.0612 12.1299 9.99979 12.3078 10ZM35.404 38.4615H10.7501C10.347 30.2308 3.75012 18.2308 1.8955 15.0169C3.50627 14.42 7.11627 13.0938 10.357 11.9823C10.5623 12.3156 10.8492 12.591 11.1905 12.7825C11.5318 12.9741 11.9164 13.0754 12.3078 13.0769C12.3078 13.689 12.5509 14.2759 12.9837 14.7087C13.4165 15.1415 14.0035 15.3846 14.6155 15.3846C14.6142 15.7622 14.7059 16.1343 14.8825 16.4681C15.0592 16.8019 15.3152 17.087 15.6282 17.2984C15.9411 17.5097 16.3012 17.6408 16.6768 17.68C17.0524 17.7192 17.4318 17.6653 17.7817 17.5231C17.861 17.8321 18.0045 18.121 18.2029 18.3709C18.4013 18.6208 18.6501 18.8261 18.9331 18.9734C19.2162 19.1208 19.527 19.2068 19.8455 19.226C20.164 19.2451 20.483 19.197 20.7817 19.0846C20.7817 19.1338 20.767 19.1808 20.767 19.2308C20.7677 19.3967 20.7865 19.562 20.8232 19.7238C20.7881 19.8117 20.7698 19.9054 20.7693 20V22.0769C19.6648 22.6009 18.7713 23.4851 18.236 24.5843C17.7007 25.6834 17.5554 26.932 17.8239 28.1247C18.0925 29.3174 18.7589 30.3832 19.7136 31.1469C20.6683 31.9105 21.8545 32.3266 23.077 32.3266C24.2996 32.3266 25.4858 31.9105 26.4405 31.1469C27.3952 30.3832 28.0616 29.3174 28.3302 28.1247C28.5987 26.932 28.4534 25.6834 27.918 24.5843C27.3827 23.4851 26.4893 22.6009 25.3847 22.0769V20C25.3836 19.9052 25.3645 19.8115 25.3286 19.7238C25.3653 19.562 25.3841 19.3967 25.3847 19.2308C25.3847 19.1808 25.3732 19.1338 25.3701 19.0846C25.6688 19.197 25.9877 19.2451 26.3062 19.226C26.6247 19.2068 26.9356 19.1208 27.2186 18.9734C27.5017 18.8261 27.7505 18.6208 27.9489 18.3709C28.1473 18.121 28.2908 17.8321 28.3701 17.5231C28.72 17.6658 29.0997 17.72 29.4756 17.6811C29.8515 17.6422 30.212 17.5112 30.5253 17.2998C30.8385 17.0884 31.0948 16.803 31.2716 16.469C31.4483 16.135 31.54 15.7625 31.5386 15.3846C32.1506 15.3846 32.7376 15.1415 33.1704 14.7087C33.6031 14.2759 33.8463 13.689 33.8463 13.0769C34.2383 13.0761 34.6237 12.9751 34.9657 12.7835C35.3078 12.5919 35.5953 12.3161 35.8009 11.9823C39.037 13.0923 42.647 14.42 44.2624 15.0169C42.407 18.2308 35.807 30.2308 35.404 38.4615Z" fill="black"/>
</svg>
