<svg xmlns="http://www.w3.org/2000/svg" version="1.1" viewBox="-5.0 -10.0 110.0 135.0">
 <path d="m90.602 39.973c0.49609 0 0.89844-0.40234 0.89844-0.90234v-3.7344c0-0.5-0.40234-0.90234-0.89844-0.90234h-26.516v-7.9766c0-0.49609-0.40234-0.89844-0.89844-0.89844h-26.375c-0.49609 0-0.89844 0.40234-0.89844 0.89844v7.9766h-26.516c-0.49609 0-0.89844 0.40625-0.89844 0.90234v3.7383c0 0.49609 0.40234 0.89844 0.89844 0.89844h3.0469v49.488l-3.0469 0.003906c-0.49609 0-0.89844 0.40234-0.89844 0.89844v3.7383c0 0.49609 0.40234 0.89844 0.89844 0.89844h81.203c0.49609 0 0.89844-0.40234 0.89844-0.89844v-3.7383c0-0.5-0.40234-0.90234-0.89844-0.90234h-3.0508v-49.488zm-0.89844-3.7383v1.9375h-25.617v-1.9375zm-51.988-8.875h24.57v62.102l-1.9336-0.003907v-13.734c0-0.49609-0.40625-0.89844-0.90234-0.89844h-18.898c-0.49609 0-0.90234 0.40234-0.90234 0.89844v13.738l-1.9336 0.003906zm3.7344 62.102v-12.84h7.6523v12.84zm9.4492-12.84h7.6484v12.84l-7.6484 0.003906zm-40.598-40.387h25.609v1.9375h-25.609zm3.9453 3.7383h21.668v49.488h-21.664zm75.453 53.227h-79.398v-1.9375h79.398zm-3.9453-3.7383h-21.668v-49.488h21.664zm-52.547-46.645h-4.2578c-0.49609 0-0.89844 0.40625-0.89844 0.90234v4.2578c0 0.49609 0.40234 0.89844 0.89844 0.89844h4.2578c0.49609 0 0.89844-0.40234 0.89844-0.89844v-4.2578c0-0.23828-0.09375-0.46875-0.26172-0.63672-0.17188-0.16797-0.39844-0.26562-0.63672-0.26562zm-0.89844 4.2578h-2.4609v-2.457h2.457zm-15.348 1.8008h4.2578-0.003906c0.49609 0 0.89844-0.40234 0.89844-0.89844v-4.2578c0-0.49609-0.40234-0.90234-0.89844-0.90234h-4.2578c-0.49609 0-0.89844 0.40625-0.89844 0.90234v4.2578c0 0.49609 0.40234 0.89844 0.89844 0.89844zm0.89844-4.2578h2.457v2.457h-2.4609zm4.1992 11.922c0 0.5 0.40234 0.90234 0.89844 0.90234h4.2539c0.49609 0 0.89844-0.40234 0.89844-0.90234v-4.2539c0-0.5-0.40234-0.90234-0.89844-0.90234h-4.2578c-0.49609 0-0.89844 0.40234-0.89844 0.90234zm1.8008-3.3555h2.4492v2.457h-2.457zm-6.8984 14.484h4.2578-0.003906c0.49609 0 0.89844-0.40234 0.89844-0.89844v-4.2578c0-0.49609-0.40234-0.90234-0.89844-0.90234h-4.2578c-0.49609 0-0.89844 0.40625-0.89844 0.90234v4.2578c0 0.23828 0.09375 0.46484 0.26172 0.63672 0.16797 0.16797 0.39844 0.26172 0.63672 0.26172zm0.89844-4.2578h2.457v2.457h-2.4609zm15.348-1.8008h-4.2578c-0.49609 0-0.89844 0.40625-0.89844 0.90234v4.2578c0 0.49609 0.40234 0.89844 0.89844 0.89844h4.2578c0.49609 0 0.89844-0.40234 0.89844-0.89844v-4.2578c0-0.23828-0.09375-0.46875-0.26172-0.63672-0.17188-0.16797-0.39844-0.26562-0.63672-0.26562zm-0.89844 4.2578h-2.4609v-2.457h2.457zm-4.1992 7.3359h-0.003906c0-0.49609-0.40234-0.89844-0.89844-0.89844h-4.2539c-0.49609 0-0.89844 0.40234-0.89844 0.89844v4.2578c0 0.5 0.40234 0.90234 0.89844 0.90234h4.2578c0.49609 0 0.89844-0.40234 0.89844-0.90234zm-1.8008 3.3555-2.457 0.003906v-2.457h2.457zm-5.1016 4-4.25 0.003906c-0.49609 0-0.89844 0.40234-0.89844 0.89844v4.2578c0 0.49609 0.40234 0.89844 0.89844 0.89844h4.2578c0.49609 0 0.89844-0.40234 0.89844-0.89844v-4.2578c0-0.24219-0.09375-0.46875-0.26172-0.63672-0.17187-0.17188-0.39844-0.26562-0.63672-0.26562zm-0.89844 4.2578-2.4531 0.003906v-2.4609h2.457zm12.891-4.2578-4.25 0.003906c-0.49609 0-0.89844 0.40234-0.89844 0.89844v4.2578c0 0.49609 0.40234 0.89844 0.89844 0.89844h4.2578c0.49609 0 0.89844-0.40234 0.89844-0.89844v-4.2578c0-0.24219-0.09375-0.46875-0.26172-0.63672-0.17188-0.17188-0.39844-0.26562-0.63672-0.26562zm-0.89844 4.2578-2.4531 0.003906v-2.4609h2.457zm46.484-35.941h4.2578c0.49609 0 0.89844-0.40234 0.89844-0.89844v-4.2578c0-0.49609-0.40234-0.90234-0.89844-0.90234h-4.2578c-0.49609 0-0.89844 0.40625-0.89844 0.90234v4.2578c0 0.23828 0.09375 0.46484 0.26172 0.63672 0.17187 0.16797 0.39844 0.26172 0.63672 0.26172zm0.89844-4.2578h2.457v2.457h-2.4531zm-12.891 4.2578h4.2578c0.49609 0 0.89844-0.40234 0.89844-0.89844v-4.2578c0-0.49609-0.40234-0.90234-0.89844-0.90234h-4.2578c-0.49609 0-0.89844 0.40625-0.89844 0.90234v4.2578c0 0.23828 0.09375 0.46484 0.26172 0.63672 0.17188 0.16797 0.39844 0.26172 0.63672 0.26172zm0.89844-4.2578h2.457v2.457h-2.4531zm4.1992 11.922h0.003906c0 0.5 0.40234 0.90234 0.89844 0.90234h4.2578c0.49609 0 0.89844-0.40234 0.89844-0.90234v-4.2539c0-0.5-0.40234-0.90234-0.89844-0.90234h-4.2617c-0.49609 0-0.89844 0.40234-0.89844 0.90234zm1.8008-3.3555h2.457v2.457h-2.457zm-6.8984 14.484h4.2578c0.49609 0 0.89844-0.40234 0.89844-0.89844v-4.2578c0-0.49609-0.40234-0.90234-0.89844-0.90234h-4.2578c-0.49609 0-0.89844 0.40625-0.89844 0.90234v4.2578c0 0.23828 0.09375 0.46484 0.26172 0.63672 0.17188 0.16797 0.39844 0.26172 0.63672 0.26172zm0.89844-4.2578h2.457v2.457h-2.4531zm15.348-1.8008h-4.2539c-0.49609 0-0.89844 0.40625-0.89844 0.90234v4.2578c0 0.49609 0.40234 0.89844 0.89844 0.89844h4.2578c0.49609 0 0.89844-0.40234 0.89844-0.89844v-4.2578c0-0.23828-0.09375-0.46875-0.26172-0.63672-0.16797-0.16797-0.39844-0.26562-0.63672-0.26562zm-0.89844 4.2578h-2.4531v-2.457h2.457zm-4.1992 7.3359c0-0.49609-0.40234-0.89844-0.89844-0.89844h-4.2539c-0.49609 0-0.89844 0.40234-0.89844 0.89844v4.2578c0 0.5 0.40234 0.90234 0.89844 0.90234h4.2578c0.49609 0 0.89844-0.40234 0.89844-0.90234zm-1.8008 3.3555-2.4492 0.003906v-2.457h2.457zm-9.3477 10.059h4.2578c0.49609 0 0.89844-0.40234 0.89844-0.90234v-4.2539c0-0.5-0.40234-0.90234-0.89844-0.90234h-4.2578c-0.49609 0-0.89844 0.40234-0.89844 0.90234v4.2578-0.003906c0 0.5 0.40234 0.90234 0.89844 0.90234zm0.89844-4.2578h2.457v2.457h-2.4531zm15.348-1.8008h-4.2539c-0.49609 0-0.89844 0.40234-0.89844 0.90234v4.2578-0.003906c0 0.5 0.40234 0.90234 0.89844 0.90234h4.2578c0.49609 0 0.89844-0.40234 0.89844-0.90234v-4.2539c0-0.24219-0.09375-0.46875-0.26172-0.63672-0.16797-0.17188-0.39844-0.26562-0.63672-0.26562zm-0.89844 4.2578h-2.4531v-2.457h2.457zm-42.141-43.684v-6.8008c0-0.5 0.40234-0.90234 0.89844-0.90234h6.8008c0.49609 0 0.90234 0.40234 0.90234 0.90234v6.8008c0 0.49609-0.40625 0.89844-0.90234 0.89844-0.49609 0-0.89844-0.40234-0.89844-0.89844v-5.8984h-5v5.8984c0 0.49609-0.40234 0.89844-0.90234 0.89844-0.49609 0-0.89844-0.40234-0.89844-0.89844zm11.395 0v-6.8008c0-0.5 0.40234-0.90234 0.90234-0.90234h6.8008-0.003906c0.5 0 0.90234 0.40234 0.90234 0.90234v6.8008c0 0.49609-0.40234 0.89844-0.90234 0.89844-0.49609 0-0.89844-0.40234-0.89844-0.89844v-5.8984h-5v5.8984c0 0.49609-0.40234 0.89844-0.89844 0.89844-0.5 0-0.90234-0.40234-0.90234-0.89844zm-11.395 13.418v-6.8008c0-0.49609 0.40234-0.89844 0.89844-0.89844h6.8008c0.49609 0 0.90234 0.40234 0.90234 0.89844v6.8008c0 0.49609-0.40625 0.89844-0.90234 0.89844-0.49609 0-0.89844-0.40234-0.89844-0.89844v-5.8984h-5v5.8984c0 0.49609-0.40234 0.89844-0.90234 0.89844-0.49609 0-0.89844-0.40234-0.89844-0.89844zm11.395 0v-6.8008c0-0.49609 0.40234-0.89844 0.90234-0.89844h6.8008-0.003906c0.5 0 0.90234 0.40234 0.90234 0.89844v6.8008c0 0.49609-0.40234 0.89844-0.90234 0.89844-0.49609 0-0.89844-0.40234-0.89844-0.89844v-5.8984h-5v5.8984c0 0.49609-0.40234 0.89844-0.89844 0.89844-0.5 0-0.90234-0.40234-0.90234-0.89844zm-11.395 13.422v-6.8008c0-0.49609 0.40234-0.90234 0.89844-0.90234h6.8008c0.49609 0 0.90234 0.40625 0.90234 0.90234v6.8008c0 0.49609-0.40625 0.89844-0.90234 0.89844-0.49609 0-0.89844-0.40234-0.89844-0.89844v-5.8984h-5v5.8984c0 0.49609-0.40234 0.89844-0.90234 0.89844-0.49609 0-0.89844-0.40234-0.89844-0.89844zm11.395 0v-6.8008c0-0.49609 0.40234-0.90234 0.90234-0.90234h6.8008-0.003906c0.5 0 0.90234 0.40625 0.90234 0.90234v6.8008c0 0.49609-0.40234 0.89844-0.90234 0.89844-0.49609 0-0.89844-0.40234-0.89844-0.89844v-5.8984h-5v5.8984c0 0.49609-0.40234 0.89844-0.89844 0.89844-0.5 0-0.90234-0.40234-0.90234-0.89844zm-8.3086-56.699 3.4258 2.4766-1.3125 4.0117c-0.12109 0.37109 0.011719 0.77734 0.32812 1.0078s0.74219 0.23047 1.0586 0l3.4141-2.4922 3.4141 2.4922c0.31641 0.23047 0.74219 0.23047 1.0586 0s0.44922-0.63672 0.32812-1.0078l-1.3125-4.0156 3.4258-2.4766-0.003906-0.003906c0.31641-0.22656 0.44922-0.63672 0.32812-1.0078-0.12109-0.37109-0.46484-0.62109-0.85547-0.62109l-4.2266 0.007812-1.3008-4.0234c-0.12109-0.37109-0.46484-0.62109-0.85547-0.62109s-0.73828 0.25-0.85547 0.62109l-1.3008 4.0234-4.2266-0.007812c-0.39063 0-0.73438 0.25-0.85547 0.62109-0.12109 0.37109 0.011719 0.78125 0.32812 1.0078zm5.4102 0.17969v-0.003906c0.39062 0 0.73438-0.25 0.85547-0.62109l0.64844-2 0.64453 1.9922v0.003907c0.12109 0.37109 0.46484 0.62109 0.85547 0.62109h2.0938l-1.6992 1.2266v0.003906c-0.31641 0.22656-0.44922 0.63672-0.32812 1.0078l0.65234 1.9922-1.6875-1.2383c-0.31641-0.23047-0.74609-0.23047-1.0625 0l-1.6914 1.2344 0.65234-1.9922c0.12109-0.37109-0.011719-0.78125-0.32813-1.0078l-1.6992-1.2266zm-32.059 12.297 4.0273 2.9141-1.5469 4.7266c-0.12109 0.36719 0.007812 0.77734 0.32422 1.0078 0.3125 0.23047 0.74219 0.23047 1.0586 0l4.0156-2.9297 4.0156 2.9297c0.31641 0.23047 0.74219 0.23437 1.0586 0.003906 0.31641-0.23047 0.44922-0.63672 0.32812-1.0078l-1.5469-4.7266 4.0273-2.918c0.31641-0.23047 0.44922-0.63672 0.32812-1.0078-0.12109-0.37109-0.46484-0.62109-0.85547-0.62109l-4.9727 0.011718-1.5234-4.7344c-0.12109-0.37109-0.46484-0.62109-0.85547-0.62109-0.39062 0-0.73828 0.25-0.85547 0.62109l-1.5273 4.7305-4.9727-0.011718v0.003906c-0.39062 0-0.73438 0.25-0.85547 0.62109-0.12109 0.37109 0.011719 0.77734 0.32812 1.0078zm6.1523 0.18359c0.39062 0 0.73438-0.25391 0.85547-0.625l0.87109-2.6992 0.87109 2.6992c0.12109 0.37109 0.46875 0.625 0.85938 0.625l2.8398-0.003906-2.3008 1.6641c-0.32031 0.22656-0.45313 0.63672-0.32813 1.0078l0.88281 2.6992-2.2891-1.6758c-0.31641-0.23047-0.74609-0.23047-1.0625 0l-2.2891 1.6758 0.88281-2.6992c0.12109-0.375-0.011718-0.78125-0.32812-1.0117l-2.3008-1.6641zm45.211-0.18359 4.0273 2.9141-1.5469 4.7266c-0.12109 0.36719 0.007812 0.77734 0.32422 1.0078 0.31641 0.23047 0.74219 0.23047 1.0586 0l4.0156-2.9297 4.0195 2.9297c0.31641 0.23047 0.74609 0.23437 1.0586 0.003906 0.31641-0.23047 0.44922-0.63672 0.32813-1.0078l-1.5469-4.7266 4.0273-2.9141c0.31641-0.23047 0.44922-0.63672 0.32812-1.0078-0.11719-0.37109-0.46484-0.62109-0.85547-0.62109l-4.9727 0.011719-1.5312-4.7383c-0.11719-0.37109-0.46484-0.62109-0.85547-0.62109-0.39063 0-0.73438 0.25-0.85547 0.62109l-1.5234 4.7305-4.9727-0.011718v0.003906c-0.39062-0.003906-0.73828 0.25-0.85938 0.62109-0.11719 0.37109 0.015625 0.77734 0.33203 1.0078zm6.1523 0.18359c0.39062 0 0.73828-0.25391 0.85547-0.625l0.87109-2.6992 0.87109 2.6992h0.003907c0.12109 0.37109 0.46484 0.625 0.85547 0.625l2.8398-0.003906-2.3008 1.6641c-0.31641 0.22656-0.44922 0.63672-0.32812 1.0078l0.88281 2.6992-2.293-1.6719c-0.31641-0.23047-0.74609-0.23047-1.0625 0l-2.293 1.6719 0.88281-2.6992c0.12109-0.375-0.011719-0.78125-0.32812-1.0117l-2.3008-1.6641z"/>
<text x="0.0" y="117.5" font-size="5.0" font-weight="bold" font-family="Arbeit Regular, Helvetica, Arial-Unicode, Arial, Sans-serif" fill="#000000">Created by dominic</text><text x="0.0" y="122.5" font-size="5.0" font-weight="bold" font-family="Arbeit Regular, Helvetica, Arial-Unicode, Arial, Sans-serif" fill="#000000">from Noun Project</text></svg>