<svg xmlns="http://www.w3.org/2000/svg" version="1.1" viewBox="-5.0 -10.0 110.0 135.0">
 <g>
  <path d="m85.938 51.273c0.49219 0.17578 1.0117 0.28906 1.5625 0.28906h3.125c2.5859 0 4.6875-2.1016 4.6875-4.6875v-9.375c0-2.0352-1.3086-3.7539-3.125-4.3984v-8.1016c0-2.5859-2.1016-4.6875-4.6875-4.6875h-1.5625v-9.375c0-3.4453-2.8047-6.25-6.25-6.25h-17.188c-0.86328 0-1.5625 0.69922-1.5625 1.5625s0.69922 1.5625 1.5625 1.5625h17.188c1.7227 0 3.125 1.4023 3.125 3.125v45.312h-12.5c-3.4453 0-6.25 3.1523-6.25 7.0312v5.4688c0 0.86328 0.69922 1.5625 1.5625 1.5625h17.188v3.125h-65.625v-3.125h17.188c0.86328 0 1.5625-0.69922 1.5625-1.5625v-5.4688c0-3.8789-2.8047-7.0312-6.25-7.0312h-12.5v-45.312c0-1.7227 1.4023-3.125 3.125-3.125h17.188c0.86328 0 1.5625-0.69922 1.5625-1.5625s-0.69922-1.5625-1.5625-1.5625h-17.188c-3.4453 0-6.25 2.8047-6.25 6.25v9.375h-1.5625c-2.5859 0-4.6875 2.1016-4.6875 4.6875v8.1016c-1.8164 0.64844-3.125 2.3672-3.125 4.3984v9.375c0 2.5859 2.1016 4.6875 4.6875 4.6875h3.125c0.55078 0 1.0703-0.11328 1.5625-0.28906v22.449c-1.8164 0.64844-3.125 2.3672-3.125 4.3984v3.125c0 2.5859 2.1016 4.6875 4.6875 4.6875v4.6875c0 0.55078 0.11328 1.0703 0.28906 1.5625h-9.6641c-0.86328 0-1.5625 0.69922-1.5625 1.5625 0 0.86328 0.69922 1.5625 1.5625 1.5625h87.5c0.86328 0 1.5625-0.69922 1.5625-1.5625 0-0.86328-0.69922-1.5625-1.5625-1.5625h-9.6641c0.17578-0.49219 0.28906-1.0117 0.28906-1.5625v-4.6875c2.5859 0 4.6875-2.1016 4.6875-4.6875v-3.125c0-2.0352-1.3086-3.7539-3.125-4.3984zm6.25-4.3984c0 0.86328-0.69922 1.5625-1.5625 1.5625h-3.125c-0.86328 0-1.5625-0.69922-1.5625-1.5625v-9.375c0-0.86328 0.69922-1.5625 1.5625-1.5625h3.125c0.86328 0 1.5625 0.69922 1.5625 1.5625zm-4.6875-23.438c0.86328 0 1.5625 0.69922 1.5625 1.5625v7.8125h-1.5625c-0.55078 0-1.0703 0.11328-1.5625 0.28906v-9.6641zm-20.312 43.75v-3.9062c0-2.1523 1.4023-3.9062 3.125-3.9062h12.5v7.8125zm-37.5-7.8125c1.7227 0 3.125 1.7539 3.125 3.9062v3.9062h-15.625v-7.8125zm-17.188-35.938h1.5625v9.6641c-0.49219-0.17578-1.0117-0.28906-1.5625-0.28906h-1.5625v-7.8125c0-0.86328 0.69922-1.5625 1.5625-1.5625zm0 25h-3.125c-0.86328 0-1.5625-0.69922-1.5625-1.5625v-9.375c0-0.86328 0.69922-1.5625 1.5625-1.5625h3.125c0.86328 0 1.5625 0.69922 1.5625 1.5625v9.375c0 0.86328-0.69922 1.5625-1.5625 1.5625zm6.25 42.188v-4.6875h12.5v4.6875c0 0.86328-0.69922 1.5625-1.5625 1.5625h-9.375c-0.86328 0-1.5625-0.69922-1.5625-1.5625zm46.875-4.6875v4.6875c0 0.55078 0.11328 1.0703 0.28906 1.5625h-31.824c0.17578-0.49219 0.28906-1.0117 0.28906-1.5625v-4.6875h31.25zm15.625 4.6875c0 0.86328-0.69922 1.5625-1.5625 1.5625h-9.375c-0.86328 0-1.5625-0.69922-1.5625-1.5625v-4.6875h12.5zm4.6875-9.375c0 0.86328-0.69922 1.5625-1.5625 1.5625h-68.75c-0.86328 0-1.5625-0.69922-1.5625-1.5625v-3.125c0-0.86328 0.69922-1.5625 1.5625-1.5625h68.75c0.86328 0 1.5625 0.69922 1.5625 1.5625z"/>
  <path d="m75 14.062h-50c-0.86328 0-1.5625 0.69922-1.5625 1.5625s0.69922 1.5625 1.5625 1.5625h50c0.86328 0 1.5625-0.69922 1.5625-1.5625s-0.69922-1.5625-1.5625-1.5625z"/>
  <path d="m59.375 59.375h-18.75c-0.86328 0-1.5625 0.69922-1.5625 1.5625s0.69922 1.5625 1.5625 1.5625h18.75c0.86328 0 1.5625-0.69922 1.5625-1.5625s-0.69922-1.5625-1.5625-1.5625z"/>
  <path d="m59.375 65.625h-18.75c-0.86328 0-1.5625 0.69922-1.5625 1.5625s0.69922 1.5625 1.5625 1.5625h18.75c0.86328 0 1.5625-0.69922 1.5625-1.5625s-0.69922-1.5625-1.5625-1.5625z"/>
  <path d="m79.688 46.875v-18.75c0-2.5859-2.1016-4.6875-4.6875-4.6875h-50c-2.5859 0-4.6875 2.1016-4.6875 4.6875v18.75c0 2.5859 2.1016 4.6875 4.6875 4.6875h50c2.5859 0 4.6875-2.1016 4.6875-4.6875zm-3.125-18.75v18.75c0 0.86328-0.69922 1.5625-1.5625 1.5625h-23.438v-21.875h23.438c0.86328 0 1.5625 0.69922 1.5625 1.5625zm-53.125 18.75v-18.75c0-0.86328 0.69922-1.5625 1.5625-1.5625h23.438v21.875h-23.438c-0.86328 0-1.5625-0.69922-1.5625-1.5625z"/>
  <path d="m42.504 32.207c-0.60938-0.60938-1.5977-0.60938-2.2109 0l-12.062 12.059c-0.60938 0.60938-0.60938 1.5977 0 2.2109 0.30469 0.30469 0.70312 0.45703 1.1055 0.45703 0.39844 0 0.80078-0.15234 1.1055-0.45703l12.062-12.059c0.60938-0.60938 0.60938-1.5977 0-2.2109z"/>
  <path d="m34.07 32.59c0.60938-0.60938 0.60938-1.5977 0-2.2109-0.60937-0.60938-1.5977-0.60938-2.2109 0l-6.0156 6.0156c-0.60938 0.60938-0.60938 1.5977 0 2.2109 0.30469 0.30469 0.70312 0.45703 1.1055 0.45703 0.39844 0 0.80078-0.15234 1.1055-0.45703z"/>
  <path d="m59.887 46.477c0.30469 0.30469 0.70312 0.45703 1.1055 0.45703 0.39844 0 0.80078-0.15234 1.1055-0.45703l12.062-12.059c0.60938-0.60938 0.60938-1.5977 0-2.2109-0.60938-0.60938-1.5977-0.60938-2.2109 0l-12.062 12.059c-0.60938 0.60938-0.60938 1.5977 0 2.2109z"/>
  <path d="m57.496 38.605c0.30469 0.30469 0.70312 0.45703 1.1055 0.45703 0.39844 0 0.80078-0.15234 1.1055-0.45703l6.0156-6.0156c0.60938-0.60938 0.60938-1.5977 0-2.2109-0.60938-0.60938-1.5977-0.60938-2.2109 0l-6.0156 6.0156c-0.60938 0.60938-0.60938 1.5977 0 2.2109z"/>
  <path d="m45.312 7.8125h9.375c0.86328 0 1.5625-0.69922 1.5625-1.5625s-0.69922-1.5625-1.5625-1.5625h-9.375c-0.86328 0-1.5625 0.69922-1.5625 1.5625s0.69922 1.5625 1.5625 1.5625z"/>
 </g>
<text x="0.0" y="117.5" font-size="5.0" font-weight="bold" font-family="Arbeit Regular, Helvetica, Arial-Unicode, Arial, Sans-serif" fill="#000000">Created by Bilicube Studio</text><text x="0.0" y="122.5" font-size="5.0" font-weight="bold" font-family="Arbeit Regular, Helvetica, Arial-Unicode, Arial, Sans-serif" fill="#000000">from Noun Project</text></svg>