<svg xmlns="http://www.w3.org/2000/svg" xmlns:xlink="http://www.w3.org/1999/xlink" version="1.1" x="0px" y="0px" viewBox="0 0 1024 1280" style="enable-background:new 0 0 1024 1024;" xml:space="preserve"><g><g><path d="M547.64,234.82c-0.37,0-0.74-0.02-1.11-0.06c-22.68-2.52-46.37-2.52-69.05,0c-5.2,0.59-9.97-2.96-10.94-8.1l-6.52-34.89    c-2.9-15.51,1.22-31.37,11.3-43.51c10.08-12.13,24.9-19.09,40.68-19.09c29.16,0,52.89,23.69,52.89,52.8c0,3.26-0.31,6.55-0.91,9.8    l-6.52,34.9C556.57,231.43,552.4,234.82,547.64,234.82z M512,149.16c-9.81,0-19.03,4.33-25.29,11.87    c-6.27,7.55-8.83,17.41-7.03,27.06l4.84,25.89c18.19-1.5,36.77-1.5,54.96,0l4.84-25.89c0.38-2.03,0.57-4.1,0.57-6.13    C544.89,163.87,530.14,149.16,512,149.16z"/></g><g><path d="M833.17,554.02H190.83c-5.52,0-10-4.48-10-10c0-82.05,30.23-160.77,85.12-221.65c54.48-60.43,128.82-98.6,209.33-107.49    c24.12-2.68,49.32-2.68,73.46,0c80.5,8.88,154.84,47.05,209.32,107.48c54.89,60.89,85.12,139.61,85.12,221.65    C843.17,549.54,838.69,554.02,833.17,554.02z M200.99,534.02h622.03c-4.87-154.45-122.09-282.23-276.48-299.26    c-22.69-2.52-46.38-2.52-69.06,0C323.08,251.79,205.86,379.57,200.99,534.02z"/></g><g><path d="M820.81,637.87H203.19c-2.88,0-5.61-1.24-7.51-3.4l-73.63-83.85c-2.59-2.95-3.21-7.14-1.6-10.72    c1.62-3.58,5.18-5.88,9.11-5.88h764.88c3.93,0,7.49,2.3,9.11,5.88c1.62,3.58,1,7.77-1.6,10.72l-73.63,83.85    C826.43,636.63,823.69,637.87,820.81,637.87z M207.71,617.87h608.58l56.06-63.85h-720.7L207.71,617.87z"/></g><g><path d="M287.92,470.63c-1.16,0-2.34-0.2-3.49-0.63c-5.18-1.93-7.81-7.69-5.88-12.86c23.82-63.99,73.58-115.96,136.52-142.57    c5.09-2.15,10.95,0.23,13.11,5.31c2.15,5.09-0.23,10.95-5.31,13.11c-57.89,24.48-103.66,72.28-125.57,131.13    C295.79,468.14,291.97,470.63,287.92,470.63z"/></g><g><path d="M315.29,894.83c-1.82,0-3.65-0.5-5.26-1.5l-53.58-33.15l-53.58,33.15c-3.42,2.11-7.77,1.98-11.05-0.35    c-3.28-2.33-4.84-6.39-3.97-10.32l13.96-63.02l-46.93-38.74c-3.05-2.52-4.33-6.59-3.26-10.4c1.06-3.81,4.27-6.63,8.18-7.2    l60.37-8.83l27.33-54.74c1.71-3.43,5.24-5.61,9.08-5.53c3.84,0.05,7.31,2.29,8.93,5.77l25.46,54.5l62.1,8.83    c3.98,0.57,7.24,3.46,8.26,7.36s-0.38,8.02-3.57,10.47l-48.4,37.23l15.66,64.1c0.96,3.94-0.55,8.08-3.84,10.46    C319.42,894.19,317.36,894.83,315.29,894.83z M184.99,779.83l34.27,28.29c2.9,2.39,4.21,6.21,3.4,9.88l-10.16,45.86l38.69-23.94    c3.22-1.99,7.3-1.99,10.52,0l38.07,23.56l-11.41-46.7c-0.94-3.85,0.48-7.89,3.62-10.3l34.74-26.72l-43.94-6.24    c-3.34-0.48-6.22-2.61-7.65-5.67l-18.99-40.65l-20.42,40.89c-1.46,2.93-4.26,4.95-7.5,5.43L184.99,779.83z"/></g><g><path d="M570.84,894.83c-1.82,0-3.65-0.5-5.26-1.5L512,860.19l-53.58,33.15c-3.42,2.12-7.77,1.98-11.05-0.35    c-3.28-2.33-4.84-6.39-3.97-10.32l13.96-63.02l-46.93-38.74c-3.05-2.52-4.33-6.59-3.26-10.4c1.06-3.81,4.27-6.63,8.18-7.2    l60.37-8.83l27.33-54.74c1.71-3.43,5.25-5.61,9.08-5.53c3.84,0.05,7.31,2.29,8.93,5.77l25.46,54.5l62.1,8.83    c3.98,0.57,7.24,3.46,8.26,7.36s-0.38,8.02-3.57,10.47l-48.4,37.23l15.66,64.1c0.96,3.94-0.55,8.08-3.84,10.46    C574.97,894.19,572.91,894.83,570.84,894.83z M440.54,779.83l34.27,28.29c2.9,2.39,4.21,6.21,3.4,9.88l-10.16,45.86l38.69-23.94    c3.22-1.99,7.3-1.99,10.52,0l38.07,23.56l-11.41-46.7c-0.94-3.85,0.48-7.89,3.62-10.3l34.74-26.72l-43.94-6.24    c-3.34-0.48-6.22-2.61-7.65-5.67l-18.99-40.65l-20.42,40.89c-1.46,2.93-4.26,4.95-7.5,5.43L440.54,779.83z"/></g><g><path d="M826.39,894.83c-1.82,0-3.65-0.5-5.26-1.5l-53.58-33.15l-53.58,33.15c-3.42,2.12-7.77,1.98-11.05-0.35    s-4.84-6.39-3.97-10.32l13.96-63.02l-46.93-38.74c-3.05-2.52-4.33-6.59-3.26-10.4c1.06-3.81,4.27-6.63,8.18-7.2l60.37-8.83    l27.33-54.74c1.71-3.43,5.26-5.61,9.08-5.53c3.84,0.05,7.31,2.29,8.93,5.77l25.46,54.5l62.09,8.83c3.98,0.57,7.24,3.46,8.26,7.36    c1.02,3.89-0.38,8.02-3.57,10.47l-48.4,37.23l15.66,64.1c0.96,3.94-0.55,8.08-3.84,10.46    C830.52,894.19,828.46,894.83,826.39,894.83z M696.09,779.83l34.27,28.29c2.9,2.39,4.21,6.21,3.4,9.88l-10.16,45.86l38.69-23.94    c3.22-1.99,7.3-1.99,10.52,0l38.07,23.56l-11.41-46.7c-0.94-3.85,0.48-7.89,3.62-10.3l34.74-26.72l-43.94-6.24    c-3.34-0.48-6.22-2.61-7.65-5.67l-18.99-40.65l-20.42,40.89c-1.46,2.93-4.26,4.95-7.5,5.43L696.09,779.83z"/></g></g><text x="0" y="1039" fill="#000000" font-size="5px" font-weight="bold" font-family="'Helvetica Neue', Helvetica, Arial-Unicode, Arial, Sans-serif">Created by IconPai</text><text x="0" y="1044" fill="#000000" font-size="5px" font-weight="bold" font-family="'Helvetica Neue', Helvetica, Arial-Unicode, Arial, Sans-serif">from the Noun Project</text></svg>