<svg width="72" height="43" viewBox="0 0 72 43" fill="none" xmlns="http://www.w3.org/2000/svg">
<path d="M68.2478 21.4736C62.2806 17.9068 56.1445 17.4669 55.8691 17.4491L50.4942 17.2734C50.2305 17.2621 49.9874 17.1957 49.7687 17.0742L41.4231 12.519C41.1331 12.3593 40.829 12.2576 40.5264 12.2178C34.8346 11.3977 29.1498 12.4798 28.8919 12.5303L20.6478 14.4524L15.9853 15.7495L15.3628 15.0348C15.5986 14.9881 15.7799 14.7908 15.7799 14.5424V11.8557C15.7799 11.573 15.5496 11.3438 15.2656 11.3438H7.75647C7.47246 11.3438 7.24219 11.573 7.24219 11.8557V14.5424C7.24219 14.8251 7.47246 15.0543 7.75647 15.0543H11.2316L12.3442 16.7624L11.6458 16.9567C11.2191 17.0754 10.9213 17.4664 10.9213 17.9075L10.9278 19.574L9.22651 22.003C9.0339 22.2785 8.99473 22.6284 9.12154 22.9391L10.8648 27.2285C10.9868 27.529 11.2495 27.7509 11.5677 27.8219L15.985 28.8078C16.0561 28.8232 16.1282 28.831 16.1995 28.831H17.1216C17.9831 30.6053 19.8041 31.8352 21.9131 31.8352C24.0221 31.8352 25.8432 30.6053 26.7047 28.831H51.7008C52.5623 30.6053 54.3833 31.8352 56.4921 31.8352C58.6011 31.8352 60.4221 30.6053 61.2836 28.831H67.004C68.3415 28.831 69.4296 27.7479 69.4296 26.4167V23.5495C69.4296 22.7046 68.9768 21.909 68.2478 21.4736ZM8.27076 12.3676H14.7513V14.0305H8.27076V12.3676ZM12.4571 15.0543H14.0186L14.8895 16.0543L13.3818 16.4738L12.4571 15.0543ZM16.2075 27.8082L11.8185 26.8449L10.6907 24.0682L16.8543 24.8922C16.684 25.4103 16.589 25.9619 16.589 26.5359C16.589 26.975 16.6488 27.3995 16.7505 27.8078L16.2075 27.8082ZM21.9131 30.8114C19.5446 30.8114 17.6176 28.8935 17.6176 26.5359C17.6176 24.1781 19.5446 22.26 21.9131 22.26C24.2817 22.26 26.2087 24.1781 26.2087 26.5359C26.2087 28.8935 24.2817 30.8114 21.9131 30.8114ZM34.9823 27.8072L33.125 23.7709C32.589 22.6062 32.3485 21.3273 32.4155 20.0511C32.8735 20.1867 33.341 20.3222 33.8253 20.4578C33.8708 20.4706 33.9175 20.4771 33.9647 20.4771H49.2775C49.5151 20.4771 49.7217 20.3151 49.7775 20.0851C49.8332 19.8552 49.7232 19.6172 49.5118 19.5095L42.3527 15.8657C37.174 13.4769 30.1282 14.5072 23.9186 15.8294C23.7054 15.8749 23.5441 16.0491 23.5163 16.2643C23.4884 16.4795 23.5996 16.689 23.7943 16.787C25.8973 17.8449 28.3616 18.8011 31.4047 19.7429C31.2809 21.2678 31.5491 22.805 32.1898 24.1974L33.8509 27.8072H27.076C27.1775 27.3991 27.2373 26.9748 27.2373 26.5359C27.2373 23.6137 24.8489 21.2362 21.9131 21.2362C19.9344 21.2362 18.208 22.3185 17.2903 23.9174L10.2386 22.9746L10.0705 22.5882L11.7713 20.1599C11.8881 19.9936 11.9499 19.7982 11.9499 19.5947L11.9232 17.9425L13.2931 17.5613C13.2973 17.5602 13.3014 17.5591 13.3055 17.5579L20.9034 15.4437L29.1076 13.5311C29.1646 13.5203 34.865 12.4365 40.3852 13.2319C40.5663 13.2556 40.7479 13.3171 40.9266 13.4159L49.2707 17.9703C49.6278 18.1685 50.0246 18.2782 50.4552 18.2965L55.8183 18.4717C55.8768 18.4755 61.5032 18.8795 67.053 21.9691L59.0762 21.906C58.3102 21.4807 57.4297 21.2362 56.4921 21.2362C53.5565 21.2362 51.1682 23.6137 51.1682 26.5359C51.1682 26.9748 51.228 27.3991 51.3295 27.8072H34.9823ZM25.6254 16.5233C31.2785 15.4007 37.4145 14.7169 41.9025 16.7857L47.1425 19.4532H34.0358C30.6314 18.4974 27.9141 17.5521 25.6254 16.5233ZM56.4921 30.8114C54.1236 30.8114 52.1967 28.8935 52.1967 26.5359C52.1967 24.1781 54.1236 22.26 56.4921 22.26C58.8606 22.26 60.7877 24.1781 60.7877 26.5359C60.7877 28.8935 58.8606 30.8114 56.4921 30.8114ZM68.401 26.4167C68.401 27.1833 67.7742 27.8072 67.004 27.8072H61.6549C61.7564 27.3991 61.8162 26.9748 61.8162 26.5359C61.8162 25.1476 61.2729 23.8862 60.3921 22.9403L68.2756 23.0026C68.3503 23.1747 68.401 23.3577 68.401 23.5495V26.4167Z" fill="black"/>
<path d="M56.4919 23.5801C54.8551 23.5801 53.5234 24.9056 53.5234 26.5348C53.5234 28.164 54.8551 29.4892 56.4919 29.4892C58.1287 29.4892 59.4603 28.164 59.4603 26.5348C59.4603 24.9056 58.1287 23.5801 56.4919 23.5801ZM56.4919 28.4654C55.4221 28.4654 54.552 27.5993 54.552 26.5348C54.552 25.47 55.4221 24.6039 56.4919 24.6039C57.5616 24.6039 58.4318 25.47 58.4318 26.5348C58.4318 27.5993 57.5616 28.4654 56.4919 28.4654Z" fill="black"/>
<path d="M21.9138 23.5801C20.277 23.5801 18.9453 24.9056 18.9453 26.5348C18.9453 28.164 20.277 29.4892 21.9138 29.4892C23.5505 29.4892 24.8822 28.164 24.8822 26.5348C24.8822 24.9056 23.5505 23.5801 21.9138 23.5801ZM21.9138 28.4654C20.844 28.4654 19.9739 27.5993 19.9739 26.5348C19.9739 25.47 20.844 24.6039 21.9138 24.6039C22.9835 24.6039 23.8536 25.47 23.8536 26.5348C23.8536 27.5993 22.9835 28.4654 21.9138 28.4654Z" fill="black"/>
<path d="M39.6884 22.418H37.2096C36.9256 22.418 36.6953 22.6472 36.6953 22.9299C36.6953 23.2126 36.9256 23.4418 37.2096 23.4418H39.6884C39.9724 23.4418 40.2027 23.2126 40.2027 22.9299C40.2027 22.6472 39.9724 22.418 39.6884 22.418Z" fill="black"/>
<path d="M22.7012 37.9707H12.6315C12.3475 37.9707 12.1172 38.1999 12.1172 38.4826C12.1172 38.7653 12.3475 38.9945 12.6315 38.9945H22.7012C22.9852 38.9945 23.2155 38.7653 23.2155 38.4826C23.2155 38.1999 22.9852 37.9707 22.7012 37.9707Z" fill="black"/>
<path d="M7.35804 38.9945H9.5661C9.85011 38.9945 10.0804 38.7653 10.0804 38.4826C10.0804 38.1999 9.85011 37.9707 9.5661 37.9707H7.35804C7.07402 37.9707 6.84375 38.1999 6.84375 38.4826C6.84375 38.7653 7.07402 38.9945 7.35804 38.9945Z" fill="black"/>
<path d="M18.4278 33.5332H8.35804C8.07402 33.5332 7.84375 33.7624 7.84375 34.0451C7.84375 34.3278 8.07402 34.557 8.35804 34.557H18.4278C18.7118 34.557 18.9421 34.3278 18.9421 34.0451C18.9421 33.7624 18.7118 33.5332 18.4278 33.5332Z" fill="black"/>
<path d="M3.0846 34.557H5.29266C5.57667 34.557 5.80695 34.3278 5.80695 34.0451C5.80695 33.7624 5.57667 33.5332 5.29266 33.5332H3.0846C2.80059 33.5332 2.57031 33.7624 2.57031 34.0451C2.57031 34.3278 2.80059 34.557 3.0846 34.557Z" fill="black"/>
<path d="M8.35804 5.02967H18.4278C18.7118 5.02967 18.9421 4.80046 18.9421 4.51776C18.9421 4.23507 18.7118 4.00586 18.4278 4.00586H8.35804C8.07402 4.00586 7.84375 4.23507 7.84375 4.51776C7.84375 4.80046 8.07402 5.02967 8.35804 5.02967Z" fill="black"/>
<path d="M3.0846 5.02967H5.29266C5.57667 5.02967 5.80695 4.80046 5.80695 4.51776C5.80695 4.23507 5.57667 4.00586 5.29266 4.00586H3.0846C2.80059 4.00586 2.57031 4.23507 2.57031 4.51776C2.57031 4.80046 2.80059 5.02967 3.0846 5.02967Z" fill="black"/>
</svg>
