<svg width="48" height="53" viewBox="0 0 48 53" fill="none" xmlns="http://www.w3.org/2000/svg">
<path d="M47.982 15.105C47.976 15.0869 47.964 15.0689 47.958 15.0508C47.946 15.0207 47.934 14.9906 47.922 14.9605C47.91 14.9424 47.898 14.9303 47.886 14.9123C47.868 14.8882 47.85 14.8581 47.826 14.84C47.814 14.8219 47.796 14.8099 47.778 14.7978C47.76 14.7798 47.742 14.7617 47.718 14.7497L24.312 0.0903409C24.126 -0.0301136 23.88 -0.0301136 23.694 0.0903409L0.276 14.7557C0.252 14.7677 0.234 14.7858 0.216 14.8039C0.198 14.8159 0.18 14.828 0.168 14.846C0.144 14.8641 0.126 14.8942 0.108 14.9183C0.0960002 14.9364 0.0839999 14.9484 0.0719999 14.9665C0.0599999 14.9966 0.0480003 15.0267 0.0360003 15.0568C0.0300003 15.0749 0.0180003 15.093 0.0120003 15.111C0.00600028 15.1532 0 15.2074 0 15.2556V37.7384C0 37.9432 0.108 38.1359 0.276 38.2383L23.688 52.9097C23.694 52.9097 23.7 52.9097 23.7 52.9157C23.706 52.9157 23.712 52.9217 23.712 52.9217C23.742 52.9398 23.772 52.9458 23.802 52.9578C23.82 52.9639 23.832 52.9759 23.85 52.9759C23.892 52.994 23.946 53 24 53C24.054 53 24.108 52.994 24.15 52.9759C24.168 52.9759 24.18 52.9639 24.198 52.9578C24.228 52.9458 24.258 52.9398 24.288 52.9217C24.288 52.9217 24.294 52.9157 24.3 52.9157C24.3 52.9097 24.306 52.9097 24.312 52.9097L47.724 38.2443C47.892 38.1359 48 37.9492 48 37.7444V15.2556C48 15.2074 47.994 15.1532 47.982 15.105ZM24 1.28284L46.308 15.2556L35.88 21.7902L13.896 7.61273L24 1.28284ZM23.412 51.3498L1.17 37.4192V16.3156L23.412 30.2461V51.3498ZM24 29.2283L1.692 15.2556L12.798 8.29932L34.782 22.4768L31.686 24.4161L24 29.2283ZM46.83 37.4192L24.588 51.3498V30.2522L46.83 16.3216V37.4192Z" fill="black"/>
</svg>
