<svg width="32" height="53" viewBox="0 0 32 53" fill="none" xmlns="http://www.w3.org/2000/svg">
<path fill-rule="evenodd" clip-rule="evenodd" d="M31.7814 50.5463C29.7654 46.904 23.7692 43.9417 18.8665 43.0073C15.2679 38.86 16.9022 28.7603 19.8128 26.8318C25.308 24.1717 29.9443 18.0403 31.6541 12.2389C31.6581 12.2389 31.6581 12.235 31.6581 12.235C31.6979 12.1634 31.7257 12.0918 31.7416 12.0163C31.7496 11.9924 31.7575 11.9685 31.7615 11.9447C31.7615 11.9407 31.7615 11.9407 31.7615 11.9367C31.7655 11.9328 31.7655 11.9248 31.7655 11.9208C31.7734 11.8851 31.7774 11.8532 31.7774 11.8174C31.7814 11.8095 31.7814 11.8055 31.7814 11.7976C31.7814 11.8016 31.7774 11.8095 31.7774 11.8135V11.7976C31.7774 11.5471 31.6661 11.3164 31.4633 11.1017C30.0318 9.59871 23.9839 8.8949 18.6239 8.71995C18.7233 8.19508 18.7313 7.6066 18.608 6.95846C18.0195 3.84902 16.6716 1.39169 16.258 0.691866L15.8723 0L15.5185 0.846947C14.3375 3.53491 13.5303 5.70195 13.2361 6.95846C13.1128 7.6066 13.1247 8.19508 13.2241 8.71995C7.86016 8.8949 1.80431 9.59871 0.380804 11.1057C0.178011 11.3204 0.070669 11.551 0.070669 11.7976C0.070669 11.8214 0.070669 11.8453 0.0746241 11.8691C0.0666886 11.8453 0.0627082 11.8214 0.0547474 11.7976C0.0547474 11.8612 0.0666886 11.9248 0.0945248 11.9884C0.106441 12.0481 0.126317 12.1038 0.154155 12.1634L0.158134 12.1674C0.965329 15.0621 2.53991 17.9807 4.58372 20.5334C6.71499 23.1935 9.35524 25.4441 12.1704 26.8438C14.6039 28.3428 16.2501 39.1304 12.8027 43.1067C7.82041 44.1326 1.95939 46.9398 0.0547474 50.5463C-1.57949 53.612 33.9325 54.0176 31.7814 50.5463ZM13.9836 7.1175C14.2421 6.00813 14.9419 4.11144 15.9638 1.73763C16.5125 2.78339 17.4112 4.74766 17.8605 7.1016C17.9718 7.69804 17.9559 8.23087 17.8485 8.70007C17.7929 8.97046 17.7054 9.22096 17.598 9.45157C17.1805 10.378 16.4449 10.9944 15.932 11.3363C15.928 11.3363 15.928 11.3363 15.924 11.3363H15.9081C15.4469 11.0302 14.6795 10.4138 14.2421 9.45157C14.1347 9.22096 14.0512 8.97046 13.9955 8.70007C13.8882 8.23087 13.8723 7.70601 13.9836 7.1175ZM13.4349 9.47147C13.741 10.2786 14.2421 10.9029 14.7073 11.3443C10.1505 11.4278 5.71695 11.9685 4.14634 12.8552C4.19801 12.8672 4.2497 12.8752 4.30538 12.8871H4.30936C4.36503 12.899 4.4207 12.9069 4.47635 12.9189C5.48236 13.1058 6.69512 13.2807 8.11465 13.4199C8.73892 13.1932 9.58189 13.0302 10.3493 12.9149L11.3951 12.7399C10.3334 12.9229 9.36716 13.2012 8.65143 13.4716C9.16439 13.5193 9.70117 13.563 10.2658 13.5949H10.2698C11.0968 13.2966 12.5243 13.1177 13.9279 13.0382V13.1336C13.252 13.2569 12.2142 13.4596 11.3474 13.6624C12.1625 13.7022 13.0213 13.734 13.9279 13.7539H14.0393C14.0751 13.7579 14.1148 13.7579 14.1546 13.7579V13.0899V13.0262V12.6207C14.1546 12.4179 14.2063 12.227 14.2898 12.0958C14.4011 12.3741 15.4548 12.406 15.924 12.406C16.3853 12.406 17.4151 12.3741 17.5543 12.1077C17.6338 12.2389 17.6815 12.4258 17.6815 12.6207V13.7499C17.7173 13.7499 17.7531 13.746 17.7929 13.746H17.9082C19.4311 13.6982 21.0653 13.6068 22.6519 13.4716C21.117 13.066 19.1528 12.6763 19.1528 12.6763C20.0395 12.736 22.302 12.9308 23.63 13.3841C24.982 13.2569 26.2663 13.0978 27.3757 12.9229C27.4353 12.9109 27.495 12.899 27.5506 12.891C27.6063 12.8791 27.658 12.8712 27.7097 12.8632C26.151 11.9725 21.7055 11.4278 17.1368 11.3443C17.614 10.895 18.111 10.2707 18.4132 9.47147C26.7077 9.69016 30.8271 10.9864 31.002 11.7459C31.01 11.7618 31.014 11.7817 31.014 11.7976C31.014 12.1634 30.0437 12.6724 28.0675 13.1177C28.0238 13.1296 27.984 13.1376 27.9403 13.1455C27.8966 13.1575 27.8568 13.1654 27.8131 13.1774C26.8707 13.3801 25.7215 13.571 24.3537 13.7261C24.1509 13.7499 23.9481 13.7698 23.7374 13.7937C22.0833 13.9646 20.1429 14.0879 17.9082 14.1356C17.8724 14.1356 17.8326 14.1356 17.7929 14.1396H17.6815C17.1129 14.1515 16.5284 14.1555 15.924 14.1555C15.3157 14.1555 14.7232 14.1515 14.1546 14.1396H14.0393C13.9995 14.1356 13.9637 14.1356 13.9279 14.1356C12.572 14.1078 11.3195 14.0481 10.1783 13.9686C10.0074 13.9607 9.84033 13.9487 9.67732 13.9328C9.06498 13.8851 8.48046 13.8334 7.93173 13.7738C7.78063 13.7579 7.62953 13.742 7.48241 13.7261C6.12253 13.567 4.97339 13.3801 4.03101 13.1774C3.98728 13.1654 3.94753 13.1575 3.90377 13.1455C3.86004 13.1376 3.82028 13.1296 3.77653 13.1177C1.80431 12.6724 0.834104 12.1634 0.834104 11.7976C0.834104 11.7817 0.834104 11.7658 0.842065 11.7499C1.00508 10.9904 5.12449 9.69016 13.4349 9.47147Z" fill="black"/>
<path fill-rule="evenodd" clip-rule="evenodd" d="M15.928 10.8517C16.2422 10.6449 16.7829 10.1836 16.8903 9.44406C16.9221 9.24923 16.9181 9.03052 16.8744 8.79593C16.8664 8.75615 16.8585 8.7164 16.8505 8.6806C16.6278 7.57123 16.1944 6.65272 15.94 6.1875C15.7252 6.67259 15.2004 7.91319 14.9936 8.6806C14.9857 8.72436 14.9737 8.76411 14.9658 8.80389C14.922 9.03848 14.9181 9.25319 14.9539 9.44406C15.0612 10.2075 15.6497 10.6727 15.928 10.8517Z" fill="black"/>
</svg>
