<svg width="50" height="51" viewBox="0 0 50 51" fill="none" xmlns="http://www.w3.org/2000/svg">
<path d="M47.7461 7.57206C46.3125 6.28363 44.3857 5.65249 42.459 5.84028L42.2959 5.85674C40.4619 6.03969 38.5244 6.85186 36.5244 8.27097C36.4893 8.1945 36.4531 8.11802 36.4141 8.04252C35.3916 6.06099 33.124 4.84032 30.0283 4.60606C26.7197 4.35535 26.0215 1.67297 25.792 0.792079C25.7168 0.502642 25.6133 0.106724 25.1436 0.0137942C25.0488 -0.00459808 24.9512 -0.00459808 24.8564 0.0137942C24.3867 0.106724 24.2842 0.502642 24.208 0.792079C23.9785 1.67297 23.2793 4.35535 19.9717 4.60606C16.876 4.84032 14.6084 6.06099 13.5859 8.04252C13.5469 8.11802 13.5107 8.1945 13.4756 8.27097C11.4756 6.85186 9.53809 6.04066 7.7041 5.85674L7.54004 5.84028C5.61426 5.65249 3.68652 6.28363 2.25293 7.57206C0.821289 8.85952 0 10.6978 0 12.6145V13.6028C0 16.7198 2.11621 19.4748 5.14746 20.3044L5.1582 20.3073L5.02344 20.4505C3.67285 21.8948 2.92969 23.7747 2.92969 25.7437C2.92969 28.1956 4.86621 30.1839 7.33789 30.2701C7.3916 30.272 7.44531 30.273 7.49902 30.273C8.52246 30.273 9.52148 29.9303 10.3281 29.3011L13.9463 26.4745C14.3203 27.3225 14.8018 28.1008 15.3857 28.8045C13.958 31.0861 11.7148 33.6078 8.75586 33.6649C8.41016 33.6717 8.11719 33.9166 8.05078 34.2525C7.98535 34.5884 8.16504 34.9243 8.48242 35.0589C8.54102 35.0831 9.9375 35.6649 11.8037 35.7229C11.9043 35.7258 12.0029 35.7278 12.1025 35.7278C14.4912 35.7278 16.5566 34.8227 18.0908 33.1006C18.5029 32.6379 18.8809 32.1752 19.2207 31.7192C19.373 31.7918 19.5283 31.8625 19.6855 31.9293C19.7588 33.9089 19.9131 35.5671 20.1445 36.8662C20.1387 37.3773 20.1777 40.1051 21.5039 42.9211C22.8516 45.7816 25.8164 49.2529 32.2852 49.5452C32.5049 49.5549 32.7217 49.5598 32.9346 49.5598C35.6611 49.5598 37.8291 48.7476 39.3838 47.1407C41.8965 44.5454 42.1797 40.5717 42.0508 38.0171C43.0879 37.8439 43.8809 36.9465 43.8809 35.8691V35.086C43.8809 33.8847 42.8955 32.9079 41.6836 32.9079H38.5801C36.8545 31.9438 35.5078 30.2285 34.6123 28.8016C35.1963 28.0979 35.6777 27.3196 36.0518 26.4716L39.6699 29.2982C40.4766 29.9284 41.4756 30.2701 42.499 30.2701C42.5527 30.2701 42.6064 30.2701 42.6602 30.2672C45.1318 30.1801 47.0684 28.1918 47.0684 25.7408C47.0684 23.7718 46.3242 21.8919 44.9746 20.4476L44.8398 20.3044L44.8506 20.3015C47.8818 19.4719 49.998 16.7169 49.998 13.5999V12.6116C49.998 10.6949 49.1768 8.85662 47.7441 7.56916L47.7461 7.57206ZM42.4424 7.30102L42.6025 7.28553C44.1182 7.13839 45.6348 7.63402 46.7627 8.64753C47.8057 9.58457 48.4365 10.8933 48.5244 12.2795C47.1094 10.51 44.8418 9.48099 42.459 9.71235L42.2959 9.7288C40.5527 9.90305 38.7256 10.6378 36.8447 11.9175C37.0039 11.1711 37.0391 10.449 36.9492 9.76462C38.8936 8.30001 40.7402 7.47139 42.4424 7.30102ZM15.3896 13.7112C15.0068 13.0046 14.7422 12.3144 14.5977 11.6571C16.8145 10.9814 21.0791 10.0676 23.6982 11.9765C24.0879 12.2602 24.5439 12.4025 25 12.4025C25.4561 12.4025 25.9131 12.2602 26.3018 11.9765C28.9199 10.0676 33.1855 10.9814 35.4023 11.6571C35.2578 12.3144 34.9932 13.0046 34.6104 13.7112C32.8809 13.0801 27.9512 11.6087 25 14.0704C23.7607 13.0365 22.1719 12.6967 20.6182 12.6967C18.4727 12.6967 16.3926 13.3453 15.3887 13.7112H15.3896ZM14.8906 8.70367C15.6719 7.1897 17.5156 6.24879 20.083 6.05421C21.9307 5.91385 23.3848 5.16364 24.4043 3.8239C24.6455 3.5064 24.8408 3.18211 25 2.87041C25.1582 3.18211 25.3545 3.5064 25.5957 3.8239C26.6152 5.16364 28.0693 5.91482 29.917 6.05421C32.4844 6.24879 34.3291 7.1897 35.1104 8.70367C35.3418 9.15283 35.4756 9.64749 35.5166 10.1741C32.7041 9.35321 28.3857 8.65527 25.4346 10.8062C25.1748 10.9959 24.8262 10.9959 24.5664 10.8062C21.6152 8.6543 17.2979 9.35224 14.4844 10.1741C14.5254 9.64749 14.6592 9.15283 14.8906 8.70367ZM3.23828 8.64753C4.36621 7.63402 5.88281 7.13742 7.39746 7.28553L7.55762 7.30102C9.25977 7.47139 11.1064 8.30001 13.0508 9.76462C12.9609 10.449 12.9961 11.1711 13.1553 11.9175C11.2744 10.6378 9.44727 9.90304 7.70312 9.72783L7.54004 9.71138C5.1582 9.47905 2.89062 10.509 1.47559 12.2786C1.56348 10.8933 2.19434 9.58457 3.2373 8.64656L3.23828 8.64753ZM9.42188 28.1608C8.8457 28.6109 8.125 28.8442 7.38965 28.819C5.70996 28.76 4.39453 27.4096 4.39453 25.7437C4.39453 24.0777 5 22.6121 6.09766 21.437L7.01172 20.4593L9.62988 18.4187C9.94824 18.1709 10.0029 17.714 9.75293 17.3994C9.50293 17.0838 9.04199 17.0296 8.72461 17.2774L6.35156 19.1273L5.53711 18.9046C3.62402 18.3809 2.17285 16.8873 1.66309 15.0519C2.35645 12.568 4.79004 10.903 7.39746 11.1566L7.55762 11.1721C10.0889 11.4257 12.54 13.1294 14.1826 14.5505C13.3711 15.6685 11.7344 18.8688 13.4287 25.0186C13.4287 25.0215 13.4307 25.0244 13.4316 25.0273L9.42188 28.1608ZM16.9941 32.1393C15.7002 33.5914 14.0098 34.3087 11.9678 34.2748C13.8564 33.2797 15.3418 31.5508 16.4277 29.8868C16.8848 30.2962 17.3848 30.6718 17.9268 31.0116C17.6426 31.3833 17.3311 31.7608 16.9941 32.1393ZM36.3154 33.0851C35.9434 33.2429 35.624 33.5004 35.3916 33.8227C34.4883 33.4675 33.6885 32.9031 33.0078 32.1393C32.6709 31.7608 32.3584 31.3833 32.0752 31.0116C32.6172 30.6718 33.1172 30.2953 33.5742 29.8858C34.2695 30.9477 35.1875 32.1209 36.3154 33.0851ZM30.082 36.0937C30.248 34.9234 30.3613 33.5081 30.4199 31.8828C30.541 31.8296 30.6611 31.7744 30.7793 31.7183C31.1191 32.1742 31.4971 32.6369 31.9092 33.0996C32.7773 34.0744 33.8086 34.7859 34.9805 35.2205V35.8701C34.9805 36.8933 35.6963 37.7538 36.6572 37.9862C36.6475 40.1632 36.3174 41.8902 34.0918 42.0402C33.1035 42.107 32.3203 41.8505 31.6963 41.2561C30.0869 39.7208 30.0771 36.4702 30.082 36.0937ZM30.4609 30.2565C30.5088 26.9537 30.3105 25.2868 30.3018 25.2103C30.2529 24.8124 29.8897 24.5288 29.4873 24.5772C29.0859 24.6256 28.7998 24.9867 28.8477 25.3845C28.8496 25.4049 29.0869 27.4251 28.9717 31.3717C28.9717 31.3717 28.9717 31.3727 28.9717 31.3736C28.9189 33.1635 28.8027 34.6978 28.626 35.9349C28.6221 35.9611 28.6201 35.9872 28.6191 36.0133C28.6133 36.1837 28.5049 40.2213 30.6758 42.2987C31.6016 43.1844 32.7832 43.5861 34.1914 43.4903C35.9277 43.3732 37.1445 42.4981 37.7119 40.9618C38.1572 39.7547 38.1338 38.354 38.1172 37.3318V37.3114C38.1104 36.9155 37.7842 36.5971 37.3848 36.5971H37.1777C36.7734 36.5971 36.4453 36.2718 36.4453 35.871V35.0879C36.4453 34.6872 36.7734 34.3619 37.1777 34.3619H41.6865C42.0908 34.3619 42.4189 34.6872 42.4189 35.0879V35.871C42.4189 36.2718 42.0908 36.5971 41.6865 36.5971H41.2715C41.0664 36.5971 40.8701 36.6822 40.7314 36.8323C40.5928 36.9823 40.5234 37.1827 40.542 37.386C40.6982 39.1681 40.7959 43.589 38.3301 46.1368C36.959 47.554 34.9482 48.2123 32.3545 48.0951C27.7725 47.888 24.5771 45.9587 22.8594 42.3606C21.5576 39.6347 21.6104 36.9088 21.6123 36.8323C21.6143 36.781 21.6104 36.7297 21.6006 36.6784C21.3564 35.3386 21.2002 33.5681 21.1357 31.4133C21.1357 31.4133 21.1357 31.4124 21.1357 31.4114C21.0176 27.4629 21.2549 25.4165 21.2588 25.3826C21.3066 24.9847 21.0205 24.6227 20.6191 24.5753C20.2168 24.5269 19.8525 24.8115 19.8047 25.2093C19.7949 25.2868 19.5957 26.9808 19.6455 30.3079C17.1553 29.0765 15.542 27.1724 14.8428 24.6343C13.8506 21.0343 14.1123 18.6345 14.5068 17.2551C14.8418 16.0848 15.3232 15.4382 15.5098 15.2204C16.4746 14.837 21.9961 12.81 24.4531 15.5601C24.5918 15.716 24.792 15.805 25.002 15.805C25.2119 15.805 25.4111 15.716 25.5508 15.5601C28.002 12.8168 33.5293 14.838 34.4941 15.2204C34.6797 15.4391 35.1621 16.0858 35.4971 17.2561C35.8916 18.6355 36.1523 21.0343 35.1611 24.6343C34.4717 27.1347 32.8936 29.0214 30.4629 30.2546L30.4609 30.2565ZM44.4639 18.9046L43.6494 19.1273L41.2764 17.2774C40.958 17.0296 40.498 17.0838 40.248 17.3994C39.998 17.7149 40.0527 18.1709 40.3711 18.4187L42.9893 20.4593L43.9033 21.437C45.002 22.6121 45.6064 24.1416 45.6064 25.7437C45.6064 27.3457 44.291 28.76 42.6113 28.819C41.877 28.8452 41.1562 28.6109 40.5791 28.1608L36.5693 25.0273C36.5693 25.0273 36.5713 25.0215 36.5723 25.0186C38.2676 18.8669 36.6309 15.6685 35.8184 14.5505C37.46 13.1294 39.9111 11.4257 42.4424 11.1731L42.6035 11.1576C45.2129 10.904 47.6445 12.569 48.3379 15.0529C47.8291 16.8873 46.377 18.3819 44.4639 18.9056V18.9046Z" fill="black"/>
<path d="M30.3289 17.5215C29.4978 17.5215 28.7166 17.8419 28.1287 18.4246C27.8425 18.7083 27.8425 19.1681 28.1287 19.4517C28.4148 19.7353 28.8787 19.7353 29.1648 19.4517C29.4753 19.1429 29.8894 18.9735 30.3289 18.9735C30.7683 18.9735 31.1824 19.1429 31.4939 19.4517C31.6365 19.593 31.824 19.6647 32.0115 19.6647C32.199 19.6647 32.3865 19.594 32.5291 19.4517C32.8152 19.1681 32.8152 18.7083 32.5291 18.4246C31.9412 17.8419 31.1599 17.5215 30.3289 17.5215Z" fill="black"/>
<path d="M17.4802 18.4255C17.1941 18.7091 17.1941 19.1689 17.4802 19.4526C17.7664 19.7362 18.2302 19.7362 18.5164 19.4526C19.158 18.8166 20.2039 18.8156 20.8455 19.4526C20.988 19.5939 21.1755 19.6655 21.363 19.6655C21.5505 19.6655 21.738 19.5949 21.8806 19.4526C22.1667 19.1689 22.1667 18.7091 21.8806 18.4255C20.6667 17.2223 18.6931 17.2232 17.4792 18.4255H17.4802Z" fill="black"/>
<path d="M25.002 9.77672C26.2139 9.77672 27.1992 8.66931 27.1992 7.30828C27.1992 5.94725 26.2139 4.83984 25.002 4.83984C23.79 4.83984 22.8047 5.94725 22.8047 7.30828C22.8047 8.66931 23.79 9.77672 25.002 9.77672ZM25.002 6.29187C25.3994 6.29187 25.7344 6.75748 25.7344 7.30828C25.7344 7.85909 25.3994 8.3247 25.002 8.3247C24.6045 8.3247 24.2695 7.85909 24.2695 7.30828C24.2695 6.75748 24.6045 6.29187 25.002 6.29187Z" fill="black"/>
<path d="M25.0508 25.541C23.7041 25.541 22.6094 26.6262 22.6094 27.9611C22.6094 29.2959 23.7041 30.3811 25.0508 30.3811C26.3975 30.3811 27.4922 29.2959 27.4922 27.9611C27.4922 26.6262 26.3975 25.541 25.0508 25.541ZM25.0508 28.9291C24.5127 28.9291 24.0742 28.4944 24.0742 27.9611C24.0742 27.4277 24.5127 26.993 25.0508 26.993C25.5889 26.993 26.0273 27.4277 26.0273 27.9611C26.0273 28.4944 25.5889 28.9291 25.0508 28.9291Z" fill="black"/>
<path d="M24.998 31.832C24.5938 31.832 24.2656 32.1573 24.2656 32.558V37.3981C24.2656 37.7989 24.5938 38.1241 24.998 38.1241C25.4023 38.1241 25.7305 37.7989 25.7305 37.3981V32.558C25.7305 32.1573 25.4023 31.832 24.998 31.832Z" fill="black"/>
</svg>
