<svg width="40" height="40" viewBox="0 0 40 40" fill="none" xmlns="http://www.w3.org/2000/svg">
<g clip-path="url(#clip0_732_740)">
<path d="M30.8594 3.04688C30.7435 3.04688 30.6302 3.08124 30.5338 3.14562C30.4375 3.21001 30.3624 3.30152 30.318 3.40858C30.2737 3.51565 30.2621 3.63346 30.2847 3.74712C30.3073 3.86078 30.3631 3.96519 30.4451 4.04713C30.527 4.12908 30.6314 4.18488 30.7451 4.20749C30.8587 4.2301 30.9765 4.2185 31.0836 4.17415C31.1907 4.1298 31.2822 4.0547 31.3466 3.95834C31.4109 3.86199 31.4453 3.7487 31.4453 3.63281C31.4453 3.47741 31.3836 3.32838 31.2737 3.21849C31.1638 3.10861 31.0148 3.04688 30.8594 3.04688ZM37.5391 10.7812C37.2594 10.7816 36.9914 10.8928 36.7936 11.0905C36.5959 11.2882 36.4847 11.5563 36.4844 11.8359V16.6797C36.4847 16.9593 36.5959 17.2274 36.7936 17.4251C36.9914 17.6228 37.2594 17.7341 37.5391 17.7344H38.9453C39.2249 17.7341 39.493 17.6228 39.6907 17.4251C39.8885 17.2274 39.9997 16.9593 40 16.6797V11.8359C39.9997 11.5563 39.8885 11.2882 39.6907 11.0905C39.493 10.8928 39.2249 10.7816 38.9453 10.7812H38.8281V9.57031C38.8278 9.26998 38.7083 8.98205 38.4959 8.76968C38.2836 8.55731 37.9956 8.43785 37.6953 8.4375H34.9609V2.92969C34.9601 2.15295 34.6511 1.40828 34.1019 0.859045C33.5527 0.30981 32.808 0.000868485 32.0312 0L7.96875 0C7.19202 0.000868485 6.44734 0.30981 5.89811 0.859045C5.34887 1.40828 5.03993 2.15295 5.03906 2.92969V8.4375H2.30469C2.00435 8.43785 1.71642 8.55731 1.50406 8.76968C1.29169 8.98205 1.17223 9.26998 1.17188 9.57031V10.7812H1.05469C0.775062 10.7816 0.506978 10.8928 0.309253 11.0905C0.111528 11.2882 0.000310178 11.5563 0 11.8359L0 16.6797C0.000310178 16.9593 0.111528 17.2274 0.309253 17.4251C0.506978 17.6228 0.775062 17.7341 1.05469 17.7344H2.46094C2.74056 17.7341 3.00865 17.6228 3.20637 17.4251C3.4041 17.2274 3.51531 16.9593 3.51562 16.6797V11.8359C3.51531 11.5563 3.4041 11.2882 3.20637 11.0905C3.00865 10.8928 2.74056 10.7816 2.46094 10.7812H2.34375V9.60938H5.03906V31.7578C5.04003 32.4464 5.28319 33.1127 5.72596 33.6401C6.16873 34.1675 6.7829 34.5223 7.46094 34.6425V38.2422C7.46085 38.4418 7.49494 38.64 7.56172 38.8281H0.585938C0.430537 38.8281 0.281502 38.8899 0.171617 38.9997C0.0617325 39.1096 0 39.2587 0 39.4141C0 39.5695 0.0617325 39.7185 0.171617 39.8284C0.281502 39.9383 0.430537 40 0.585938 40H39.4141C39.5695 40 39.7185 39.9383 39.8284 39.8284C39.9383 39.7185 40 39.5695 40 39.4141C40 39.2587 39.9383 39.1096 39.8284 38.9997C39.7185 38.8899 39.5695 38.8281 39.4141 38.8281H32.4383C32.5051 38.64 32.5391 38.4418 32.5391 38.2422V34.6425C33.2171 34.5223 33.8313 34.1675 34.274 33.6401C34.7168 33.1127 34.96 32.4464 34.9609 31.7578V9.60938H37.6562V10.7812H37.5391ZM2.34375 16.5625H1.17188V11.9531H2.34375V16.5625ZM6.21094 7.26562H19.4141V19.7656H6.21094V7.26562ZM12.6172 38.2422C12.617 38.3975 12.5552 38.5465 12.4454 38.6563C12.3355 38.7662 12.1866 38.828 12.0312 38.8281H9.21875C9.0634 38.828 8.91446 38.7662 8.80461 38.6563C8.69476 38.5465 8.63298 38.3975 8.63281 38.2422V34.6875H12.6172V38.2422ZM13.6883 38.8281C13.7551 38.64 13.7891 38.4418 13.7891 38.2422V34.6875H26.2109V38.2422C26.2109 38.4418 26.2449 38.64 26.3117 38.8281H13.6883ZM31.3672 38.2422C31.367 38.3975 31.3052 38.5465 31.1954 38.6563C31.0855 38.7662 30.9366 38.828 30.7812 38.8281H27.9688C27.8134 38.828 27.6645 38.7662 27.5546 38.6563C27.4448 38.5465 27.383 38.3975 27.3828 38.2422V34.6875H31.3672V38.2422ZM33.7891 31.7578C33.7885 32.2238 33.6032 32.6706 33.2736 33.0002C32.9441 33.3297 32.4973 33.5151 32.0312 33.5156H7.96875C7.50271 33.5151 7.05592 33.3297 6.72638 33.0002C6.39685 32.6706 6.21148 32.2238 6.21094 31.7578V25.0375C6.71734 25.4194 7.33449 25.6257 7.96875 25.625H32.0312C32.6655 25.6257 33.2827 25.4194 33.7891 25.0375V31.7578ZM33.7891 22.6953C33.7885 23.1613 33.6032 23.6081 33.2736 23.9377C32.9441 24.2672 32.4973 24.4526 32.0312 24.4531H7.96875C7.50271 24.4526 7.05592 24.2672 6.72638 23.9377C6.39685 23.6081 6.21148 23.1613 6.21094 22.6953V20.9375H33.7891V22.6953ZM33.7891 19.7656H20.5859V7.26562H33.7891V19.7656ZM33.7891 6.09375H6.21094V2.92969C6.21148 2.46365 6.39685 2.01686 6.72638 1.68732C7.05592 1.35778 7.50271 1.17241 7.96875 1.17188H32.0312C32.4973 1.17241 32.9441 1.35778 33.2736 1.68732C33.6032 2.01686 33.7885 2.46365 33.7891 2.92969V6.09375ZM38.8281 11.9531V16.5625H37.6562V11.9531H38.8281ZM24.1406 26.7969H15.8594C15.3933 26.7974 14.9465 26.9828 14.617 27.3123C14.2875 27.6419 14.1021 28.0887 14.1016 28.5547V30.5859C14.1021 31.052 14.2875 31.4988 14.617 31.8283C14.9465 32.1578 15.3933 32.3432 15.8594 32.3438H24.1406C24.6067 32.3432 25.0535 32.1578 25.383 31.8283C25.7125 31.4988 25.8979 31.052 25.8984 30.5859V28.5547C25.8979 28.0887 25.7125 27.6419 25.383 27.3123C25.0535 26.9828 24.6067 26.7974 24.1406 26.7969ZM24.7266 30.5859C24.7264 30.7413 24.6646 30.8902 24.5548 31.0001C24.4449 31.1099 24.296 31.1717 24.1406 31.1719H15.8594C15.704 31.1717 15.5551 31.1099 15.4452 31.0001C15.3354 30.8902 15.2736 30.7413 15.2734 30.5859V28.5547C15.2736 28.3993 15.3354 28.2504 15.4452 28.1405C15.5551 28.0307 15.704 27.9689 15.8594 27.9688H24.1406C24.296 27.9689 24.4449 28.0307 24.5548 28.1405C24.6646 28.2504 24.7264 28.3993 24.7266 28.5547V30.5859ZM10.1562 26.7969C9.60772 26.7969 9.0715 26.9595 8.61541 27.2643C8.15932 27.569 7.80384 28.0022 7.59393 28.509C7.38401 29.0157 7.32909 29.5734 7.4361 30.1114C7.54312 30.6494 7.80726 31.1436 8.19513 31.5314C8.58301 31.9193 9.07719 32.1834 9.61518 32.2905C10.1532 32.3975 10.7108 32.3426 11.2176 32.1326C11.7244 31.9227 12.1575 31.5672 12.4623 31.1112C12.767 30.6551 12.9297 30.1188 12.9297 29.5703C12.9289 28.835 12.6364 28.1301 12.1165 27.6101C11.5965 27.0902 10.8916 26.7977 10.1562 26.7969ZM10.1562 31.1719C9.83949 31.1719 9.52985 31.0779 9.26647 30.902C9.00309 30.726 8.79782 30.4759 8.6766 30.1832C8.55538 29.8906 8.52366 29.5685 8.58546 29.2579C8.64726 28.9472 8.79979 28.6618 9.02377 28.4378C9.24776 28.2139 9.53313 28.0613 9.8438 27.9995C10.1545 27.9377 10.4765 27.9694 10.7691 28.0907C11.0618 28.2119 11.3119 28.4172 11.4879 28.6805C11.6639 28.9439 11.7578 29.2536 11.7578 29.5703C11.7573 29.9949 11.5884 30.402 11.2882 30.7023C10.988 31.0025 10.5809 31.1714 10.1562 31.1719ZM29.8438 26.7969C29.2952 26.7969 28.759 26.9595 28.3029 27.2643C27.8468 27.569 27.4913 28.0022 27.2814 28.509C27.0715 29.0157 27.0166 29.5734 27.1236 30.1114C27.2306 30.6494 27.4948 31.1436 27.8826 31.5314C28.2705 31.9193 28.7647 32.1834 29.3027 32.2905C29.8407 32.3975 30.3983 32.3426 30.9051 32.1326C31.4119 31.9227 31.845 31.5672 32.1498 31.1112C32.4545 30.6551 32.6172 30.1188 32.6172 29.5703C32.6164 28.835 32.3239 28.1301 31.804 27.6101C31.284 27.0902 30.5791 26.7977 29.8438 26.7969ZM29.8438 31.1719C29.527 31.1719 29.2173 31.0779 28.954 30.902C28.6906 30.726 28.4853 30.4759 28.3641 30.1832C28.2429 29.8906 28.2112 29.5685 28.273 29.2579C28.3348 28.9472 28.4873 28.6618 28.7113 28.4378C28.9353 28.2139 29.2206 28.0613 29.5313 27.9995C29.842 27.9377 30.164 27.9694 30.4566 28.0907C30.7493 28.2119 30.9994 28.4172 31.1754 28.6805C31.3514 28.9439 31.4453 29.2536 31.4453 29.5703C31.4448 29.9949 31.2759 30.402 30.9757 30.7023C30.6755 31.0025 30.2684 31.1714 29.8438 31.1719ZM9.09945 3.04688C8.98357 3.04688 8.87028 3.08124 8.77392 3.14562C8.67757 3.21001 8.60247 3.30152 8.55812 3.40858C8.51377 3.51565 8.50217 3.63346 8.52477 3.74712C8.54738 3.86078 8.60319 3.96519 8.68513 4.04713C8.76708 4.12908 8.87148 4.18488 8.98514 4.20749C9.0988 4.2301 9.21662 4.2185 9.32368 4.17415C9.43075 4.1298 9.52226 4.0547 9.58664 3.95834C9.65103 3.86199 9.68539 3.7487 9.68539 3.63281C9.68539 3.47741 9.62366 3.32838 9.51377 3.21849C9.40389 3.10861 9.25485 3.04688 9.09945 3.04688ZM27.6562 3.04688H12.3438C12.1883 3.04688 12.0393 3.10861 11.9294 3.21849C11.8195 3.32838 11.7578 3.47741 11.7578 3.63281C11.7578 3.78821 11.8195 3.93725 11.9294 4.04713C12.0393 4.15702 12.1883 4.21875 12.3438 4.21875H27.6562C27.8117 4.21875 27.9607 4.15702 28.0706 4.04713C28.1805 3.93725 28.2422 3.78821 28.2422 3.63281C28.2422 3.47741 28.1805 3.32838 28.0706 3.21849C27.9607 3.10861 27.8117 3.04688 27.6562 3.04688Z" fill="black"/>
</g>
<defs>
<clipPath id="clip0_732_740">
<rect width="40" height="40" fill="white"/>
</clipPath>
</defs>
</svg>
